<?xml version="1.0" encoding="UTF-8"?>
<svg id="Layer_1" data-name="Layer 1" xmlns="http://www.w3.org/2000/svg" viewBox="0 0 1021.77 218.71">
  <defs>
    <style>
      .cls-1 {
        fill: #fdd574;
      }

      .cls-2 {
        fill: #b38c68;
      }
    </style>
  </defs>
  <g id="A5sRiG">
    <g>
      <path class="cls-1" d="M305.65,133.09c2.55,2.37,14.8-10.17,17.64-11.91,30.02-18.32,49.35,8.6,32.16,36.24-12.28,19.75-40.16,32.3-62.02,37.88-6.44,1.64-32.98,7.86-36.72,3-.78-4.55.1-3.24,2.6-4.52,9.81-5.02,28.36-6.6,40.18-10.78,20.12-7.11,58.9-27.77,48.48-53.51-18.41-12.06-30.33,23.55-48.46,14.81-9.21-4.44-5.37-25.22-6.11-33.64-5.1-5.2-19.17,18.91-24.48,21.38-11.34,5.27-17.28-6.41-18.33-16.29-9.54-89.43,125.68-94.04,162.06-25.46,13.36,25.17,16.09,68.71,49.87,74.5,5.34.91,30.71-.37,30.65,3.97-10.54,10.38-39.1,9.62-50.84,1.95-35.76-23.37-26.65-76.37-64.67-100.47-41.22-26.13-123.56-19-113.88,44.56,4.02,6.75,10.51-6.58,13.23-9.32,10.73-10.83,27.05-11.2,28.55,6.45.6,7.06-3.12,13.58.09,21.16Z"/>
      <path class="cls-2" d="M326.02,90.26l.92-6.21c27.07-7.7,48.36,6.03,59.72,30.2,6.85,14.56,16.71,50.92,26.98,60.69,10.22,9.72,29.32,7.7,40.79,14.21-9.98,10.4-40.19,3.08-49.94-5.07-16.29-13.64-22.1-64.79-38.86-81.42-8.5-8.43-28.33-10.3-39.61-12.4Z"/>
      <path class="cls-2" d="M485.02,139.19c-14.05.85-9.41-18.64-17.78-26.57-9.12-8.65-23.74-5.99-33.12-13.17,25.93-17.33,60.32,10.48,50.9,39.74Z"/>
      <path class="cls-2" d="M460.59,50.52c-.27,3.07-4,21.84-5.11,23.43-3.65,5.2-8.17-1.33-8.58-5.33-.28-2.78,1.57-6.44,1.55-9.84-.07-8.95-2.99-47.36,5.24-49.84,2.24-1.4,6.91,1.41,6.91,2.85,0,12.32,1.07,26.79,0,38.74Z"/>
      <path class="cls-2" d="M517.66,41.36c1.6,8.94-4.6,15.29-9.33,22.25-2.69,3.96-20.59,29.46-25.3,24.63-.34-8.28,5.02-17.28,9.34-24.28,2.77-4.49,19.41-28.58,25.3-22.59Z"/>
      <path class="cls-2" d="M502,107.19c3.96-4.46,29.61-16.41,31.96-7.67,2.64,12.96-47.39,25.05-31.96,7.67Z"/>
    </g>
  </g>
  <g>
    <path class="cls-2" d="M864.21,198.88c0,1.61-.25,3.29-.73,4.77-.47,1.43-1.17,2.83-2.25,3.88-3.8,3.71-8.11.24-9.14-3.97-1.14-4.68-.49-10.09,0-14.82.49-4.64,1.23-9.28,1.22-13.95,0-1.51-.07-3.69-1.08-4.93-3.01-3.72-5.73,7.91-5.99,9.22-.99,4.96-1.85,10.13-2.4,15.1-.18,1.62-.52,4.2-2.37,4.81-1.64.55-3.33-1.08-4.27-2.22-3.3-4.01-3.08-9.89-2.69-14.77.14-1.8.26-3.54.27-5.25,0-1.11.54-4.98-.94-5.34-1.25-.3-2.27,3.27-2.61,4.07-.59,1.37-1.13,2.76-1.62,4.17-1,2.82-1.86,5.7-2.63,8.59-.81,3.06-1.56,6.15-2.24,9.25-.71,3.21-1.25,6.79-2.21,9.77-.28.85-.8,1.81-1.57,2.31-1.12.72-1.87-.09-2.31-1.07-.84-1.85-1.15-3.94-1.52-5.84-.35-1.83-.67-3.68-.9-5.54-.44-3.52-.71-7.13-1.02-10.79-.36-4.29-.51-8.66-.42-13.14.07-2.52.25-5.19.44-7.9.04-.63.19-1.53.76-1.9.66-.44,1.52-.06,1.96.14,1.46.67,2.8,2.05,3.61,3.58,1.11,2.1.8,4.09.57,6.3-.3,2.98-.37,5.73-.41,7.73-.02,2.01-.03,3.25-.03,3.29,0,.08,0,.16,0,.23.01-.05.02-.1.03-.14.74-3.17,1.68-6.3,2.81-9.38.55-1.54,1.17-3.06,1.84-4.57,1.62-3.63,4.9-8.43,9.59-6.92,1.1.31,2.21.98,3.13,2.1.95,1.09,1.66,2.77,2.1,4.72v.05s.03-.04.03-.06c.37-.85.65-1.54,1.21-2.52,1.05-1.74,2.3-3.2,4.12-4.35.88-.55,2.07-1.03,3.21-1.18,2.84-.42,5.68.88,7.53,3,2.79,3.21,2.67,8.22,2.37,12.2-.15,2.03-.38,4.02-.64,5.97-.51,3.92-1.1,7.7-1.39,11.41-.18,2.29-.33,4.64-.11,6.92.09.88.85,1.28,1.59.75.64-.46,1.01-1.75,1.25-2.47.62-1.82.84-3.76,1.61-5.54.1-.23.23-.48.45-.6.33-.18.76-.03,1.01.25.4.46.59,1.2.68,1.98.1.92.06,1.91.06,2.58ZM819.11,208.76c-.5-2.72-1.18-5.79-1.79-9.25-.41-2.31-.7-4.45-.88-6.4.11,2.48.46,5.52,1.16,8.97.51,2.49,1.04,4.72,1.51,6.69ZM819.89,196.46c-.15-5.19-.71-10.32-.97-15.42.09,5.14.66,10.29.96,15.5,0-.03,0-.05,0-.08ZM820.01,195.19c-.21-5.32-.78-10.57-.95-15.79,0,5.23.58,10.49.95,15.8,0,0,0-.01,0-.02ZM820.26,192.85c-.24-4.08-.63-8.11-.82-12.1.07,4.16.45,8.34.76,12.57.02-.16.04-.31.06-.47ZM820.99,173.01c0-.97-.01-1.93-.1-2.88-.09-.94-.2-1.87-.41-2.74-.21-.87-.48-1.72-.89-2.37.35.73.55,1.6.73,2.47.16.88.28,1.78.35,2.71.09.92.1,1.87.15,2.83,0,.96.02,1.93.03,2.91l.1-1.46.04-1.46ZM828.3,181.63c-1.02,3.12-2.05,6.62-3.04,10.48-1.44,5.78-2.49,11.01-3.17,15.5.61-3.22,1.36-6.98,2.33-11.17,1.34-5.81,2.69-10.82,3.87-14.8ZM823,186.92c1.05-4.52,2.42-8.98,4.25-13.26.44-1.08.94-2.12,1.44-3.2.64-1.35,1.55-2.65,2.64-3.58.55-.46,1.15-.84,1.8-1.07.66-.22,1.4-.25,2.08-.06,1.41.38,2.34,1.54,2.96,2.84-.6-1.32-1.53-2.5-2.95-2.89-.69-.2-1.43-.18-2.1.03-.67.22-1.27.6-1.83,1.05-1.11.93-2.05,2.24-2.71,3.62-.5,1.08-1.01,2.11-1.45,3.2-1.83,4.29-3.17,8.77-4.13,13.31ZM837.51,168.47c-.58-1.17-1.59-2.23-2.96-2.35-1.36-.16-2.54.65-3.48,1.58-.47.48-.91,1.04-1.29,1.62-.37.56-.74,1.29-.95,1.77-.5,1.04-.97,2.1-1.41,3.17-1.77,4.28-3.1,8.72-4.01,13.25.99-4.51,2.36-8.93,4.13-13.2.44-1.07.9-2.13,1.4-3.17.21-.48.56-1.19.92-1.74.37-.58.79-1.12,1.25-1.61.92-.93,2.08-1.76,3.43-1.62,1.36.11,2.38,1.14,2.97,2.3ZM838.68,171.65c-.24-1.42-.64-2.84-1.4-3.96-.38-.55-.86-1.05-1.45-1.38-.59-.34-1.29-.45-1.97-.4-1.36.19-2.46,1.09-3.38,2.16-.93,1.03-1.66,2.57-2.07,3.5-1.97,4.21-3.44,8.62-4.53,13.12,1.17-4.47,2.68-8.87,4.65-13.06.42-.94,1.12-2.42,2.02-3.45.9-1.05,1.98-1.96,3.31-2.16.67-.05,1.36.05,1.95.38.59.32,1.06.8,1.44,1.35.76,1.11,1.17,2.5,1.43,3.92ZM841.66,172.47c-.02.06-.04.13-.06.19,0,0,0,0,0,.01.02-.07.04-.13.06-.2ZM852.64,165.32c1.68.48,3.07,1.88,3.67,3.36.67,1.48.92,3,1.02,4.48.1,1.48.07,2.95-.02,4.38-.34,5.73-1.35,11.32-1.72,16.89.46-5.56,1.51-11.14,1.85-16.88.09-1.44.12-2.9.01-4.39-.11-1.49-.37-3.02-1.06-4.51-.62-1.49-2.04-2.9-3.74-3.37-.81-.21-1.71-.37-2.61-.19-.89.17-1.71.59-2.37,1.07.67-.47,1.48-.88,2.37-1.04.89-.17,1.79,0,2.59.21ZM851.05,164.67c.49,0,.93.12,1.36.19.43.13.88.27,1.29.47.83.43,1.58,1.05,2.11,1.77,1.09,1.45,1.48,3.07,1.73,4.59.44,3.07.13,5.96-.1,8.81-.54,5.71-1.51,11.27-1.65,16.79.22-5.52,1.23-11.06,1.78-16.78.23-2.85.53-5.74.07-8.83-.26-1.52-.66-3.15-1.78-4.61-.54-.72-1.3-1.34-2.14-1.76-.42-.2-.87-.34-1.3-.46-.43-.06-.88-.17-1.36-.18ZM854.09,166.17c.69.5,1.29,1.12,1.69,1.83.84,1.4,1.16,2.93,1.32,4.4.31,2.96.02,5.82-.24,8.65-.57,5.67-1.54,11.24-1.61,16.81.16-5.57,1.17-11.12,1.74-16.8.26-2.84.54-5.7.21-8.68-.18-1.47-.51-3.01-1.37-4.41-.4-.71-1.02-1.33-1.72-1.82-.37-.21-.74-.46-1.14-.57l-.6-.2-.61-.1.61.11.6.21c.41.12.76.37,1.13.57ZM863.68,195.88c.07,1.35,0,2.8-.21,4.31-.11.76-.27,1.53-.47,2.31-.2.76-.46,1.6-.87,2.51-.42.87-1.04,1.73-1.86,2.36-.81.65-1.84,1.08-2.94,1.02-1.09-.09-2.11-.66-2.87-1.51-.78-.84-1.32-1.97-1.62-3.25-.1-.43-.17-.87-.23-1.31l-.12-1.05c-.05-.64-.13-1.28-.16-1.9-.08-1.26-.1-2.49-.08-3.68.04-2.39.22-4.65.45-6.76-.34,2.66-.65,5.72-.59,9.12.03.85.05,1.71.13,2.6.04.45.07.88.13,1.36.06.57.16,1.26.32,1.86.31,1.23.85,2.35,1.66,3.21.79.86,1.87,1.47,3.07,1.52,1.75.03,3.22-1.06,4.14-2.31.47-.63.8-1.34,1.05-2.03.25-.7.41-1.27.55-1.86.55-2.36.66-4.56.52-6.5Z"/>
    <path class="cls-2" d="M886.92,197.3c-.46,2.94-1.31,5.85-3.26,8.6-1.14,1.57-2.85,3.11-5.06,3.82-1.06.4-2.36.51-3.6.38-1.27-.15-2.44-.66-3.42-1.28-1.95-1.31-3.13-3.04-3.97-4.78-.42-.88-.75-1.79-.98-2.72-.26-.92-.38-1.93-.48-2.76-.39-3.93.14-7.89.67-11.55.12-.86.4-2.05,1.03-2.58.74-.63,1.59-.21,2.02,0,1.43.73,2.61,2.51,3.2,4.68.82,2.97.28,5.78.37,8.57.03,1.06.18,2.18.57,3.2.34.91.95,2.2,2,2.43,1.22.26,2.33-1.01,2.92-1.9.66-1.02,1.08-2.18,1.41-3.34.58-2.06.8-4.46.64-6.67-.15-2.2-.73-4.36-1.73-5.61-.51-.64-1.2-1.22-2.01-1.43-.98-.25-1.63.24-2.37.79-.34.23-.76.55-1.52.33-.55-.16-.81-.96-.7-1.65.14-1.32,1.22-2.77,2.85-3.46.81-.35,1.75-.53,2.72-.44.93.13,1.79.3,2.61.72,1.59.72,2.94,1.99,3.86,3.41.91,1.42,1.51,2.96,1.9,4.49.69,2.92.74,5.84.34,8.75ZM872.79,200.78c-.16-.53-.3-1.07-.36-1.62-.11-.52-.16-1.22-.22-1.84-.12-1.27-.14-2.59-.19-3.9-.05-1.3-.06-2.62-.15-3.85-.09-1.22-.23-2.41-.57-3.28.25.99.32,2.21.39,3.43.03,1.21.07,2.49.11,3.81.06,1.28.08,2.58.24,3.83.15,1.32.33,2.38.74,3.41ZM886.01,188.48c-.35-1.2-.75-2.45-1.5-3.65-.72-1.19-1.68-2.39-3.02-3.18-.44-.33-.99-.49-1.46-.71-.49-.19-1.01-.25-1.49-.35-1.03-.17-2.03.04-2.83.39-1.34.59-2.19,1.64-2.57,2.65.6-1.44,2.23-2.86,4.5-2.94,2.54-.06,5.32,1.71,6.75,4.3,1.97,3.44,2.26,7.01,2.12,10.07.16-1.95.11-4.18-.49-6.59ZM875.6,205.98c.73.09,1.49-.08,2.23-.38,1.46-.63,2.62-1.99,3.43-3.54,1.63-3.15,2.12-6.95,1.84-10.56.19,3.61-.34,7.38-1.95,10.5-.8,1.54-1.93,2.88-3.36,3.51-.72.3-1.47.49-2.18.41-.72-.07-1.41-.38-2.04-.86.61.5,1.3.83,2.03.92ZM875.03,205.46c1.23.42,2.77-.02,3.95-1.02,1.18-1.02,2.07-2.54,2.68-4.18,1.2-3.28,1.45-7.09.85-10.54.51,3.47.22,7.24-.97,10.5-.6,1.63-1.47,3.13-2.62,4.15-1.15,1-2.65,1.47-3.89,1.09ZM882.98,189.25c.6,3.56.33,7.39-.81,10.79-.6,1.69-1.44,3.32-2.65,4.48-1.18,1.16-2.85,1.85-4.34,1.52,1.48.37,3.2-.29,4.4-1.45,1.24-1.17,2.1-2.81,2.7-4.51,1.14-3.43,1.37-7.29.69-10.84Z"/>
    <path class="cls-2" d="M914.73,196.63c-1.21,1.39-3.38,1.63-5.03.94-2.45-1.02-4.58-2.95-4.96-6.75-.34-3.42-1.97-.06-3.03,2.14-1.11,2.3-2.06,5.04-2.83,7.47-.68,2.16-1.19,4.5-1.13,6.77,0,.53-.02,1.25-.5,1.61-1.2.89-2.95-.22-3.77-1.12-.91-1.01-1.5-2.31-1.92-3.6-.9-2.75-1.27-5.65-1.4-8.53-.12-2.59,0-5.18.02-7.78,0-1.46.04-2.99-.24-4.5-.06-.35-.09-.85.37-1.06.54-.25,1.46-.07,1.92.03,1.56.33,3.18,1.12,4.21,2.08,1.41,1.32,1.23,2.57,1.05,3.88-.08.59-.16,1.15-.22,1.69.3-.48.6-.93.86-1.33,1.26-2.02,2.58-4.09,4.37-5.68,1.09-.97,2.62-1.8,4.12-1.71,3.7.22,4,5.46,4.05,8.14.03,1.25-.06,2.67.72,3.74.44.6,1.14.99,1.87,1.09.82.1,1.33.14,1.78.95.27.5.05,1.13-.3,1.53ZM891.74,202.65c-.35-1.05-.56-2.05-.67-2.99.04.99.23,2.16.64,3.39,0-.13.02-.27.03-.41ZM893.94,207.14c-.04-.12-.09-.24-.12-.37-.09-.12-.18-.24-.26-.37.05.15.1.3.15.45.08.1.15.2.23.29ZM894.2,195.4c-.03-.95-.06-1.9-.07-2.86-.05,1.03-.05,2.06-.04,3.09.04-.08.08-.16.11-.24ZM896.32,187.92c-.03-.58-.08-1.16-.24-1.74-.16-.57-.36-1.15-.69-1.68-.32-.53-.73-1.05-1.27-1.43.49.43.83.96,1.12,1.49.29.54.49,1.09.63,1.66.17.56.22,1.14.28,1.71.05.57.05,1.15.05,1.72l.11-.86v-.87ZM894.31,198.24c0-.11-.02-.22-.02-.33-.04.1-.07.21-.1.31,0,.12.02.24.02.36.03-.11.06-.23.1-.34ZM894.37,195.03c-.03-1.14-.05-2.29-.04-3.44-.08,1.23-.09,2.46-.08,3.69.04-.08.08-.17.12-.25ZM894.46,197.74c0-.08,0-.15,0-.23-.03.08-.07.15-.1.23,0,0,0,.01,0,.02,0,.11,0,.21.02.32.04-.11.06-.22.1-.33ZM894.71,194.37c-.01-.66-.04-1.32-.05-1.98-.03.73-.05,1.46-.06,2.18.03-.07.07-.14.1-.21ZM894.76,196.9s0-.07,0-.11c-.04.09-.08.18-.12.27,0,.05,0,.1,0,.14.04-.1.07-.2.11-.3ZM902.5,186.72c.28-.38.57-.67.85-1,.29-.32.57-.66.84-.9.58-.5,1-1.16,1.82-1.34.4-.1.89,0,1.2.28.31.27.46.61.57.95.25.67.41,1.36.55,2.15-.12-.82-.28-1.54-.52-2.22-.1-.34-.26-.68-.57-.96-.59-.54-1.43-.31-2.04.08-1.05.67-1.99,1.8-2.72,2.81-1.67,2.27-3.33,5.07-4.23,6.97.98-1.88,2.64-4.6,4.26-6.81ZM898.6,192.1l.35-.62.46-.75c.32-.51.6-1.01.95-1.52.67-1.03,1.35-2.01,2.06-2.96.34-.45.69-.78,1.04-1.16.36-.4.68-.67,1.01-.95.34-.27.64-.59,1-.79.37-.2.88-.33,1.39-.17.51.16.81.56.98.91.17.36.31.74.44,1.13.24.79.45,1.66.58,2.79-.1-1.16-.29-2.06-.53-2.88-.12-.4-.27-.78-.44-1.15-.17-.35-.47-.74-.99-.91-.51-.16-1.03-.04-1.4.14-.37.19-.67.5-1.01.76-.33.27-.66.53-1.03.94-.35.39-.71.72-1.06,1.18-.71.98-1.41,1.99-2.07,3.05-.35.52-.62,1.04-.93,1.56l-.44.76-.33.63ZM905.46,183.88c.38-.23.92-.36,1.39-.13.47.22.68.66.8,1.06.14.4.24.82.33,1.25.18.86.3,1.78.39,2.88-.06-1.13-.17-2.08-.34-2.96-.09-.44-.2-.86-.34-1.27-.12-.4-.34-.83-.81-1.06-.47-.23-1.02-.11-1.4.11-.4.21-.67.56-1,.86-.63.57-1.31,1.38-1.96,2.2-1.22,1.68-2.42,3.64-3.32,5.29.95-1.64,2.15-3.53,3.35-5.15.64-.79,1.31-1.59,1.93-2.18.33-.31.6-.67.99-.89ZM914.73,196.13c-.92.83-2.56,1.35-4.35.87-.87-.28-1.74-.68-2.53-1.42-.4-.35-.76-.79-1.05-1.26-.15-.24-.3-.48-.41-.74l-.18-.38s-.05-.08-.08-.13c-.6-1.22-.54-1.89-.77-2.66.08.61.09,1.13.22,1.73.07.3.17.63.38,1.03l.04.07s0-.07.04.05l.17.38c.1.25.26.5.41.74.3.48.67.95,1.11,1.33.61.58,1.31.94,1.97,1.2.68.28,1.39.39,2.03.37,1.29-.03,2.35-.54,2.99-1.18Z"/>
    <path class="cls-2" d="M937.53,197.3c-.46,2.94-1.31,5.85-3.26,8.6-1.14,1.57-2.85,3.11-5.06,3.82-1.06.4-2.36.51-3.6.38-1.27-.15-2.44-.66-3.42-1.28-1.95-1.31-3.14-3.04-3.97-4.78-.42-.88-.75-1.79-.98-2.72-.26-.92-.38-1.93-.48-2.76-.39-3.93.14-7.89.67-11.55.12-.86.4-2.05,1.03-2.58.74-.63,1.59-.21,2.02,0,1.43.73,2.61,2.51,3.2,4.68.82,2.97.28,5.78.37,8.57.03,1.06.18,2.18.57,3.2.34.91.95,2.2,2,2.43,1.22.26,2.33-1.01,2.92-1.9.66-1.02,1.08-2.18,1.41-3.34.58-2.06.8-4.46.64-6.67-.15-2.2-.73-4.36-1.73-5.61-.51-.64-1.2-1.22-2.01-1.43-.98-.25-1.63.24-2.37.79-.34.23-.76.55-1.52.33-.55-.16-.81-.96-.7-1.65.14-1.32,1.22-2.77,2.84-3.46.81-.35,1.75-.53,2.72-.44.93.13,1.8.3,2.61.72,1.59.72,2.94,1.99,3.86,3.41.91,1.42,1.5,2.96,1.9,4.49.69,2.92.74,5.84.34,8.75ZM923.41,200.78c-.16-.53-.3-1.07-.36-1.62-.11-.52-.16-1.22-.22-1.84-.12-1.27-.14-2.59-.19-3.9-.05-1.3-.06-2.62-.15-3.85-.09-1.22-.23-2.41-.57-3.28.25.99.32,2.21.38,3.43.03,1.21.07,2.49.11,3.81.06,1.28.09,2.58.24,3.83.15,1.32.33,2.38.74,3.41ZM936.63,188.48c-.35-1.2-.75-2.45-1.5-3.65-.72-1.19-1.68-2.39-3.03-3.18-.43-.33-.99-.49-1.46-.71-.49-.19-1.01-.25-1.49-.35-1.03-.17-2.03.04-2.83.39-1.34.59-2.19,1.64-2.57,2.65.6-1.44,2.23-2.86,4.5-2.94,2.54-.06,5.32,1.71,6.75,4.3,1.97,3.44,2.26,7.01,2.12,10.07.16-1.95.11-4.18-.49-6.59ZM926.21,205.98c.73.09,1.49-.08,2.23-.38,1.46-.63,2.62-1.99,3.43-3.54,1.63-3.15,2.12-6.95,1.84-10.56.19,3.61-.34,7.38-1.95,10.5-.8,1.54-1.93,2.88-3.36,3.51-.72.3-1.47.49-2.18.41-.72-.07-1.41-.38-2.04-.86.61.5,1.3.83,2.03.92ZM925.65,205.46c1.23.42,2.77-.02,3.95-1.02,1.18-1.02,2.07-2.54,2.68-4.18,1.2-3.28,1.45-7.09.85-10.54.51,3.47.22,7.24-.97,10.5-.6,1.63-1.47,3.13-2.62,4.15-1.15,1-2.65,1.47-3.89,1.09ZM933.59,189.25c.6,3.56.33,7.39-.81,10.79-.6,1.69-1.44,3.32-2.65,4.48-1.18,1.16-2.85,1.85-4.34,1.52,1.48.37,3.2-.29,4.4-1.45,1.24-1.17,2.1-2.81,2.7-4.51,1.14-3.43,1.37-7.29.69-10.84Z"/>
    <path class="cls-2" d="M959.34,201.58c-.24,2.36-2.07,4.93-4.65,6.36-1.23.69-2.65,1.17-4.21,1.24-1.55.08-3.21-.25-4.67-1.02-2.8-1.5-4.34-4.22-5.08-7.22-.56-2.55-.65-5.09-.44-7.62.27-2.95,1.01-5.96,2.71-8.79.81-1.37,2.09-2.89,3.68-3.86,3.52-2.14,8.22-1.85,10.67,1.74,1.13,1.68,1.63,3.72,1.66,5.73.02,1.4-.03,4.45-1.38,5.3-.73.46-1.55.02-1.98-.21-1.43-.73-2.48-2.55-3.18-4.28-.27-.65-.71-2.42-1.62-2.46-.85-.04-1.53,1.02-1.94,1.62-2.01,2.9-2.5,6.59-2.25,10.04.21,2.89,1.54,5.82,4.91,5.48,1.45-.13,2.93-.88,4.24-2.07.34-.32.84-.94,1.35-1.41.5-.45,1.17-.89,1.77-.35.44.37.45,1.17.39,1.77ZM959.06,201.14c-.46,1.53-1.3,3.19-2.77,4.65-1.46,1.44-3.66,2.66-6.4,2.68-1.81,0-3.64-.63-5.04-1.72-1.42-1.07-2.37-2.54-2.94-3.97.64,1.83,2.05,3.88,4.33,5.02,2.25,1.17,5.14,1.14,7.43.04,1.68-.78,2.9-1.96,3.74-3.14.85-1.2,1.35-2.42,1.63-3.54ZM944.12,197.16c.1,1.55.33,3.21.85,4.57.52,1.38,1.49,2.54,2.72,3.27-1.2-.76-2.14-1.93-2.63-3.3-.49-1.35-.71-3-.81-4.54-.17-3.14.25-6.37,1.48-9.2-1.3,2.8-1.78,6.05-1.61,9.21ZM944.27,195.21c-.05,1.57.07,3.15.37,4.68.29,1.54.84,2.84,1.82,3.88-.94-1.07-1.45-2.36-1.72-3.9-.28-1.52-.38-3.09-.34-4.66.09-3.11.8-6.28,2.4-8.81-1.67,2.49-2.43,5.67-2.52,8.8ZM945.44,201.25c-.4-1.33-.64-2.93-.69-4.44-.1-3.06.32-6.23,1.59-8.9-1.35,2.63-1.82,5.83-1.72,8.91.06,1.52.31,3.13.73,4.47.46,1.3,1.27,2.43,2.37,3.12-1.08-.72-1.85-1.86-2.29-3.15ZM950.32,185.56c.16-.06.32-.11.46-.14.15-.02.18-.03.29-.03.18-.03.37,0,.55.04.03.01.07.02.11.02.17.06.34.14.49.26.15.12.31.25.5.55.42.6.68,1.41.87,2.39.2.95.31,2,.64,2.8-.24-.89-.29-1.96-.47-2.91-.16-.98-.45-1.77-.86-2.41-.2-.29-.37-.43-.54-.56-.17-.13-.36-.22-.55-.28-.05,0-.1-.01-.14-.03-.21-.04-.42-.04-.61,0-.12.02-.15.05-.29.09-.14.05-.29.12-.45.19Z"/>
    <path class="cls-2" d="M981.11,201.58c-.24,2.36-2.07,4.93-4.65,6.36-1.23.69-2.65,1.17-4.21,1.24-1.55.08-3.21-.25-4.68-1.02-2.8-1.5-4.34-4.22-5.08-7.22-.56-2.55-.65-5.09-.44-7.62.27-2.95,1.01-5.96,2.71-8.79.81-1.37,2.09-2.89,3.68-3.86,3.52-2.14,8.22-1.85,10.67,1.74,1.13,1.68,1.63,3.72,1.66,5.73.02,1.4-.03,4.45-1.38,5.3-.73.46-1.55.02-1.98-.21-1.43-.73-2.48-2.55-3.18-4.28-.27-.65-.71-2.42-1.62-2.46-.85-.04-1.53,1.02-1.94,1.62-2.01,2.9-2.5,6.59-2.25,10.04.21,2.89,1.54,5.82,4.91,5.48,1.45-.13,2.93-.88,4.24-2.07.34-.32.84-.94,1.36-1.41.5-.45,1.17-.89,1.77-.35.44.37.45,1.17.39,1.77ZM980.83,201.14c-.46,1.53-1.3,3.19-2.77,4.65-1.46,1.44-3.66,2.66-6.4,2.68-1.81,0-3.64-.63-5.04-1.72-1.42-1.07-2.37-2.54-2.94-3.97.64,1.83,2.06,3.88,4.34,5.02,2.25,1.17,5.14,1.14,7.43.04,1.68-.78,2.89-1.96,3.74-3.14.85-1.2,1.35-2.42,1.63-3.54ZM965.89,197.16c.1,1.55.33,3.21.85,4.57.52,1.38,1.49,2.54,2.72,3.27-1.21-.76-2.14-1.93-2.63-3.3-.49-1.35-.71-3-.81-4.54-.17-3.14.25-6.37,1.48-9.2-1.3,2.8-1.78,6.05-1.6,9.21ZM966.03,195.21c-.04,1.57.07,3.15.37,4.68.29,1.54.84,2.84,1.81,3.88-.94-1.07-1.45-2.36-1.72-3.9-.28-1.52-.38-3.09-.34-4.66.09-3.11.8-6.28,2.4-8.81-1.67,2.49-2.43,5.67-2.52,8.8ZM967.21,201.25c-.4-1.33-.64-2.93-.69-4.44-.1-3.06.32-6.23,1.59-8.9-1.35,2.63-1.82,5.83-1.72,8.91.06,1.52.31,3.13.73,4.47.46,1.3,1.27,2.43,2.37,3.12-1.08-.72-1.85-1.86-2.29-3.15ZM972.09,185.56c.16-.06.32-.11.46-.14.15-.02.18-.03.29-.03.18-.03.37,0,.55.04.04.01.07.02.11.02.17.06.34.14.49.26.15.12.31.25.5.55.42.6.68,1.41.87,2.39.2.95.31,2,.64,2.8-.24-.89-.29-1.96-.47-2.91-.16-.98-.45-1.77-.86-2.41-.2-.29-.36-.43-.53-.56-.17-.13-.36-.22-.55-.28-.05,0-.1-.01-.14-.03-.21-.04-.42-.04-.61,0-.12.02-.15.05-.29.09-.14.05-.29.12-.45.19Z"/>
    <path class="cls-2" d="M1004.84,197.3c-.46,2.94-1.31,5.85-3.26,8.6-1.14,1.57-2.85,3.11-5.06,3.82-1.06.4-2.36.51-3.6.38-1.27-.15-2.44-.66-3.42-1.28-1.95-1.31-3.14-3.04-3.97-4.78-.42-.88-.75-1.79-.98-2.72-.26-.92-.38-1.93-.48-2.76-.39-3.93.14-7.89.67-11.55.12-.86.4-2.05,1.03-2.58.74-.63,1.59-.21,2.02,0,1.43.73,2.61,2.51,3.2,4.68.82,2.97.28,5.78.37,8.57.03,1.06.18,2.18.57,3.2.34.91.95,2.2,2,2.43,1.22.26,2.33-1.01,2.92-1.9.66-1.02,1.08-2.18,1.41-3.34.58-2.06.8-4.46.64-6.67-.15-2.2-.73-4.36-1.73-5.61-.51-.64-1.2-1.22-2.01-1.43-.98-.25-1.63.24-2.37.79-.34.23-.76.55-1.52.33-.55-.16-.81-.96-.7-1.65.14-1.32,1.22-2.77,2.84-3.46.81-.35,1.75-.53,2.72-.44.93.13,1.8.3,2.61.72,1.59.72,2.94,1.99,3.86,3.41.91,1.42,1.5,2.96,1.9,4.49.69,2.92.74,5.84.34,8.75ZM990.71,200.78c-.16-.53-.3-1.07-.36-1.62-.11-.52-.16-1.22-.22-1.84-.12-1.27-.14-2.59-.19-3.9-.05-1.3-.06-2.62-.15-3.85-.09-1.22-.23-2.41-.57-3.28.25.99.32,2.21.38,3.43.03,1.21.07,2.49.11,3.81.06,1.28.09,2.58.24,3.83.15,1.32.33,2.38.74,3.41ZM1003.93,188.48c-.35-1.2-.75-2.45-1.5-3.65-.72-1.19-1.68-2.39-3.03-3.18-.43-.33-.99-.49-1.46-.71-.49-.19-1.01-.25-1.49-.35-1.03-.17-2.03.04-2.83.39-1.34.59-2.19,1.64-2.57,2.65.6-1.44,2.23-2.86,4.5-2.94,2.54-.06,5.32,1.71,6.75,4.3,1.97,3.44,2.26,7.01,2.12,10.07.16-1.95.11-4.18-.49-6.59ZM993.51,205.98c.73.09,1.49-.08,2.23-.38,1.46-.63,2.62-1.99,3.43-3.54,1.63-3.15,2.12-6.95,1.84-10.56.19,3.61-.34,7.38-1.95,10.5-.8,1.54-1.93,2.88-3.36,3.51-.72.3-1.47.49-2.18.41-.72-.07-1.41-.38-2.04-.86.61.5,1.3.83,2.03.92ZM992.95,205.46c1.23.42,2.77-.02,3.95-1.02,1.18-1.02,2.07-2.54,2.68-4.18,1.2-3.28,1.45-7.09.85-10.54.51,3.47.22,7.24-.97,10.5-.6,1.63-1.47,3.13-2.62,4.15-1.15,1-2.65,1.47-3.89,1.09ZM1000.9,189.25c.6,3.56.33,7.39-.81,10.79-.6,1.69-1.44,3.32-2.65,4.48-1.18,1.16-2.85,1.85-4.34,1.52,1.48.37,3.2-.29,4.4-1.45,1.24-1.17,2.1-2.81,2.7-4.51,1.14-3.43,1.37-7.29.69-10.84Z"/>
  </g>
  <g>
    <path class="cls-2" d="M48.97,60.85c8.51-.46,16,1.92,22.45,7.14,6.45,5.22,10.69,11.69,12.7,19.43,2.01,7.74,2.58,15.54,1.72,23.41-.87,7.87-4.46,14.69-10.78,20.46-6.32,5.77-14.46,8.88-24.44,9.34l-6.86.14c-.09.09-.23.14-.41.14h-26.91c-.92,0-1.56-.41-1.92-1.24-.37-.82-.37-1.65,0-2.47.37-.82,1.05-1.24,2.06-1.24,2.1,0,3.16-2.65,3.16-7.96v-54.37c0-5.22-1.05-7.83-3.16-7.83-1.01,0-1.7-.41-2.06-1.24-.37-.82-.37-1.65,0-2.47.37-.82,1.01-1.24,1.92-1.24h32.54ZM40.18,127.44c.27,1.65.84,3.13,1.72,4.46.87,1.33,1.99,2.33,3.36,3.02,1.37.69,2.88,1.03,4.53,1.03,7.23,0,12.36-4.89,15.38-14.69,1.28-4.39,2.06-9.66,2.33-15.79.27-6.13-.3-12.36-1.72-18.67-1.42-6.32-3.73-11.12-6.93-14.42-2.2-2.2-4.69-3.52-7.48-3.98-2.79-.46-5.29.21-7.48,1.99-2.2,1.78-3.48,4.55-3.84,8.31-.18,1.83-.27,6.45-.27,13.87s.02,14.74.07,21.97c.04,7.23.16,11.53.34,12.91Z"/>
    <path class="cls-2" d="M150.84,135.96c.64,0,1.14.16,1.51.48.36.32.59.73.69,1.24.09.5.09,1.01,0,1.51-.09.5-.32.92-.69,1.24-.37.32-.82.48-1.37.48h-21.83c-.55,0-.96-.23-1.24-.69-.27-.46-.41-.87-.41-1.23v-9.75c-.46,1.01-1.51,2.47-3.16,4.39-1.65,1.92-3.11,3.29-4.39,4.12-2.84,1.74-5.86,2.75-9.06,3.02-3.21.28-6.11-.14-8.72-1.23-2.61-1.1-4.78-2.97-6.52-5.63-1.74-2.65-2.61-5.81-2.61-9.47s1.14-6.66,3.43-8.99c2.29-2.33,5.03-4.05,8.24-5.15,3.2-1.1,6.43-2.15,9.68-3.16,3.25-1.01,5.99-2.43,8.24-4.26,2.24-1.83,3.36-4.21,3.36-7.14s-1.42-4.76-4.26-5.77c-2.75-.91-4.76-.41-6.04,1.51-.55.73-.82,1.65-.82,2.75,0,3.48-.69,6.18-2.06,8.1s-3.98,2.88-7.83,2.88-6.23-1.78-7.41-5.35c-1.46-4.03-.5-7.96,2.88-11.81,4.3-4.94,11.21-7.41,20.73-7.41,5.86,0,11.12,1.53,15.79,4.6,4.67,3.07,7.73,7.44,9.2,13.11.82,3.48,1.24,13.37,1.24,29.66,0,1.1.09,2.22.27,3.36.18,1.15.55,2.2,1.1,3.16.55.96,1.24,1.44,2.06,1.44ZM112.54,120.72c.28,3.94,2.17,5.88,5.7,5.84,3.52-.04,6.61-1.53,9.27-4.46v-15.52c-1.37,1.56-3.07,2.82-5.08,3.78-2.02.96-3.66,1.65-4.94,2.06-1.28.41-2.43,1.28-3.43,2.61-1.01,1.33-1.51,3.23-1.51,5.7Z"/>
    <path class="cls-2" d="M214.28,95.04c.09,2.75-.67,5.13-2.26,7.14-1.6,2.01-3.73,3.02-6.38,3.02-3.75,0-6.32-.96-7.69-2.88s-2.11-4.58-2.2-7.96c-.09-2.93-1.19-4.71-3.3-5.36-2.56-.73-4.71.64-6.45,4.12-1.1,2.2-1.78,4.94-2.06,8.24v26.64c0,1.1.09,2.22.27,3.36.18,1.15.55,2.2,1.1,3.16s1.24,1.44,2.06,1.44c1.01,0,1.69.41,2.06,1.24.36.82.34,1.65-.07,2.47-.41.82-1.03,1.24-1.85,1.24h-26.91c-.92,0-1.56-.41-1.92-1.24-.37-.82-.37-1.65,0-2.47.37-.82,1.05-1.24,2.06-1.24,2.1,0,3.16-2.61,3.16-7.83v-23.89c-.18-2.56-.6-4.67-1.24-6.31-.64-1.65-1.28-2.77-1.92-3.37-.64-.59-1.21-1.3-1.72-2.13-.5-.82-.76-1.79-.76-2.88,0-.91.89-1.58,2.68-1.99s3.84-.71,6.18-.89c2.33-.18,4.81-.75,7.41-1.71s4.6-2.31,5.97-4.05c.09,0,.39-.07.89-.21.5-.14,1.05.07,1.65.62.59.55.89,1.42.89,2.61v3.3c1.92-2.84,4.6-4.74,8.03-5.7,3.43-.96,6.75-1.03,9.96-.21,3.2.82,6.02,2.47,8.44,4.94,2.42,2.47,3.73,5.4,3.91,8.79Z"/>
  </g>
  <g>
    <path class="cls-2" d="M610.13,108.22c3.75,2.47,6.36,5.22,7.83,8.24,1.46,3.02,1.76,5.93.89,8.72-.87,2.79-2.47,5.38-4.81,7.76s-5.4,4.3-9.2,5.77c-3.8,1.46-7.85,2.2-12.15,2.2-4.94,0-9.52-.82-13.73-2.47-4.21-1.65-7.14-3.93-8.79-6.86-1.37-2.38-1.97-4.62-1.79-6.73.18-2.11.91-3.68,2.2-4.74,1.28-1.05,2.75-1.72,4.39-1.99,1.65-.27,3.3.23,4.94,1.51,1.37,1.01,2.31,2.7,2.82,5.08.5,2.38,1.08,4.17,1.72,5.35.82,1.37,2.08,2.38,3.78,3.02,1.69.64,3.36.87,5.01.69,1.65-.18,2.97-.59,3.98-1.23.73-.55,1.17-1.17,1.3-1.85.14-.69.07-1.35-.21-1.99-.27-.64-.73-1.46-1.37-2.47-.92-1.46-4.55-3.71-10.92-6.73-6.36-3.02-10.41-5.4-12.15-7.14-3.75-3.75-5.81-7.62-6.18-11.6-.37-3.98.62-7.41,2.95-10.3,2.33-2.88,5.63-5.24,9.89-7.07,4.26-1.83,8.9-2.75,13.94-2.75,7.96.09,13.96,1.88,17.99,5.35,2.29,2.01,3.8,4.58,4.53,7.69.73,3.11.41,5.58-.96,7.41-1.65,2.2-3.73,3.55-6.25,4.05-2.52.5-4.81.09-6.87-1.23-2.06-1.33-3.27-3.32-3.64-5.97,0-.37-.05-1.1-.14-2.2-.09-1.1-.21-1.85-.34-2.27-.14-.41-.34-.98-.62-1.72-.28-.73-.71-1.3-1.3-1.71-.6-.41-1.4-.76-2.4-1.03-2.56-.64-5.06.09-7.48,2.2-2.43,2.11-2.54,4.81-.34,8.1.82,1.19,2.58,2.15,5.29,2.88,2.7.73,5.86,1.58,9.47,2.54,3.62.96,6.52,2.13,8.72,3.5Z"/>
    <path class="cls-2" d="M690.04,135.68c1.01,0,1.69.44,2.06,1.3.37.87.34,1.74-.07,2.61-.41.87-1.03,1.3-1.85,1.3h-22.11c-.46,0-.82-.23-1.1-.69-.28-.46-.41-.87-.41-1.23v-10.57c-1.74,2.29-3.98,4.71-6.73,7.28-3.29,3.02-6.73,4.72-10.3,5.08-3.57.37-6.78-.43-9.61-2.4-2.84-1.97-5.17-4.96-7-8.99-1.83-4.03-2.75-8.65-2.75-13.87v-14.69c-.18-2.47-.55-4.46-1.1-5.97-.55-1.51-1.08-2.47-1.58-2.88-.5-.41-.96-.96-1.37-1.65-.41-.69-.62-1.58-.62-2.68,0-1.19,1.3-2.08,3.91-2.68,2.61-.6,5.88-1.19,9.82-1.79,3.93-.59,6.91-1.35,8.92-2.27.37-.18.75-.25,1.17-.21.41.05.8.16,1.17.34.37.18.66.48.89.89.23.41.34.89.34,1.44-.09.37-.14,1.05-.14,2.06-2.38,27.55-.82,41.33,4.67,41.33,6.41,0,9.84-4.94,10.3-14.83.36-6.22.27-10.85-.28-13.87-.37-2.01-1.05-3.59-2.06-4.74-1.01-1.14-1.9-2.11-2.68-2.88-.78-.78-1.17-1.72-1.17-2.82,0-1.19,1.3-2.08,3.91-2.68,2.61-.6,5.88-1.19,9.82-1.79,3.93-.59,6.91-1.35,8.92-2.27.73-.36,1.51-.3,2.33.21.82.5,1.24,1.26,1.24,2.27v44.35c0,1.92.28,3.73.82,5.42.55,1.7,1.42,2.54,2.61,2.54Z"/>
    <path class="cls-2" d="M754.02,95.04c.09,2.75-.67,5.13-2.27,7.14-1.6,2.01-3.73,3.02-6.38,3.02-3.75,0-6.32-.96-7.69-2.88s-2.11-4.58-2.2-7.96c-.09-2.93-1.19-4.71-3.29-5.36-2.56-.73-4.72.64-6.45,4.12-1.1,2.2-1.79,4.94-2.06,8.24v26.64c0,1.1.09,2.22.27,3.36.18,1.15.55,2.2,1.1,3.16.55.96,1.24,1.44,2.06,1.44,1.01,0,1.69.41,2.06,1.24.37.82.34,1.65-.07,2.47s-1.03,1.24-1.85,1.24h-26.91c-.92,0-1.56-.41-1.92-1.24-.37-.82-.37-1.65,0-2.47.36-.82,1.05-1.24,2.06-1.24,2.11,0,3.16-2.61,3.16-7.83v-23.89c-.18-2.56-.6-4.67-1.24-6.31-.64-1.65-1.28-2.77-1.92-3.37-.64-.59-1.21-1.3-1.72-2.13-.5-.82-.75-1.79-.75-2.88,0-.91.89-1.58,2.68-1.99,1.78-.41,3.84-.71,6.18-.89,2.33-.18,4.81-.75,7.41-1.71,2.61-.96,4.6-2.31,5.97-4.05.09,0,.39-.07.89-.21.5-.14,1.05.07,1.65.62.59.55.89,1.42.89,2.61v3.3c1.92-2.84,4.6-4.74,8.03-5.7,3.43-.96,6.75-1.03,9.95-.21,3.2.82,6.02,2.47,8.45,4.94,2.42,2.47,3.73,5.4,3.91,8.79Z"/>
    <path class="cls-2" d="M795.62,60.85c9.7.37,15.97,3.53,18.81,9.47,2.01,4.03,1.83,7.78-.55,11.26-1.65,2.38-3.94,3.57-6.87,3.57-3.75,0-6.32-.96-7.69-2.88-1.37-1.92-2.11-4.58-2.2-7.96,0-2.01-.78-3.48-2.33-4.39-1.56-.91-3.39-1.24-5.49-.96-3.39.55-5.93,2.36-7.62,5.42-1.7,3.07-2.06,6.04-1.1,8.92.96,2.88,3.04,4.32,6.25,4.32h6.18c1.46,0,1.67,1.15.62,3.43-1.05,2.29-2.27,3.43-3.64,3.43h-3.02v33.5c0,1.1.09,2.22.27,3.36.18,1.15.55,2.2,1.1,3.16s1.24,1.44,2.06,1.44c1.01,0,1.69.41,2.06,1.24.37.82.37,1.65,0,2.47-.37.82-1.01,1.24-1.92,1.24h-26.91c-1.28,0-2.01-.78-2.2-2.33.09-1.65.87-2.52,2.33-2.61,1.19,0,2.06-.85,2.61-2.54s.82-3.5.82-5.42l-.28-33.5h-6.87c-.92,0-1.53-.57-1.85-1.71-.32-1.14-.3-2.29.07-3.43.37-1.14.96-1.72,1.79-1.72h7.41c0-13.91,5.67-22.52,17.03-25.81,4.39-1.19,8.1-1.51,11.12-.96Z"/>
    <path class="cls-2" d="M867.16,135.96c.64,0,1.14.16,1.51.48.36.32.59.73.69,1.24.09.5.09,1.01,0,1.51-.09.5-.32.92-.69,1.24-.37.32-.82.48-1.37.48h-21.83c-.55,0-.96-.23-1.24-.69-.27-.46-.41-.87-.41-1.23v-9.75c-.46,1.01-1.51,2.47-3.16,4.39-1.65,1.92-3.11,3.29-4.39,4.12-2.84,1.74-5.86,2.75-9.06,3.02-3.21.28-6.11-.14-8.72-1.23-2.61-1.1-4.78-2.97-6.52-5.63-1.74-2.65-2.61-5.81-2.61-9.47s1.14-6.66,3.43-8.99c2.29-2.33,5.03-4.05,8.24-5.15,3.2-1.1,6.43-2.15,9.68-3.16,3.25-1.01,5.99-2.43,8.24-4.26,2.24-1.83,3.36-4.21,3.36-7.14s-1.42-4.76-4.26-5.77c-2.75-.91-4.76-.41-6.04,1.51-.55.73-.82,1.65-.82,2.75,0,3.48-.69,6.18-2.06,8.1s-3.98,2.88-7.83,2.88-6.23-1.78-7.41-5.35c-1.46-4.03-.5-7.96,2.88-11.81,4.3-4.94,11.21-7.41,20.73-7.41,5.86,0,11.12,1.53,15.79,4.6,4.67,3.07,7.73,7.44,9.2,13.11.82,3.48,1.24,13.37,1.24,29.66,0,1.1.09,2.22.27,3.36.18,1.15.55,2.2,1.1,3.16.55.96,1.24,1.44,2.06,1.44ZM828.85,120.72c.28,3.94,2.17,5.88,5.7,5.84,3.52-.04,6.61-1.53,9.27-4.46v-15.52c-1.37,1.56-3.07,2.82-5.08,3.78-2.02.96-3.66,1.65-4.94,2.06-1.28.41-2.43,1.28-3.43,2.61-1.01,1.33-1.51,3.23-1.51,5.7Z"/>
    <path class="cls-2" d="M939.92,135.96c1.01,0,1.69.41,2.06,1.24.37.82.34,1.65-.07,2.47s-1.03,1.24-1.85,1.24h-26.91c-.92,0-1.56-.41-1.92-1.24-.37-.82-.37-1.65,0-2.47.36-.82,1.05-1.24,2.06-1.24,1.28,0,2.27-3.38,2.95-10.16.69-6.77.55-13.57-.41-20.39-.96-6.82-2.72-10.23-5.29-10.23-1.74,0-3.57.78-5.49,2.33s-3.52,3.43-4.8,5.63v24.85c0,.82.04,1.65.14,2.47.09.82.27,1.67.55,2.54.28.87.64,1.58,1.1,2.13.46.55,1.01.82,1.65.82,1.01,0,1.69.41,2.06,1.24.36.82.34,1.65-.07,2.47-.41.82-1.03,1.24-1.85,1.24h-26.91c-1.37,0-2.11-.78-2.2-2.33.09-1.65.87-2.52,2.33-2.61,2.1,0,3.16-2.61,3.16-7.83v-23.89c-.18-2.56-.6-4.67-1.24-6.31-.64-1.65-1.28-2.77-1.92-3.37-.64-.59-1.21-1.3-1.72-2.13-.5-.82-.76-1.79-.76-2.88,0-.91.89-1.58,2.68-1.99s3.84-.71,6.18-.89c2.33-.18,4.81-.75,7.41-1.71,2.61-.96,4.6-2.31,5.97-4.05.09,0,.39-.07.89-.21.5-.14,1.05.07,1.65.62.59.55.89,1.42.89,2.61v9.61c1.65-2.29,3.89-4.71,6.73-7.28,3.29-2.84,6.71-4.51,10.23-5.01,3.52-.5,6.71.07,9.54,1.72,2.84,1.65,5.17,4.37,7,8.17,1.83,3.8,2.75,8.26,2.75,13.39v24.03c0,4.94,1.14,7.41,3.43,7.41Z"/>
    <path class="cls-2" d="M1005.28,135.96c.64,0,1.14.16,1.51.48.36.32.59.73.69,1.24.09.5.09,1.01,0,1.51-.09.5-.32.92-.69,1.24-.37.32-.82.48-1.37.48h-21.83c-.55,0-.96-.23-1.24-.69-.27-.46-.41-.87-.41-1.23v-9.75c-.46,1.01-1.51,2.47-3.16,4.39-1.65,1.92-3.11,3.29-4.39,4.12-2.84,1.74-5.86,2.75-9.06,3.02-3.21.28-6.11-.14-8.72-1.23-2.61-1.1-4.78-2.97-6.52-5.63-1.74-2.65-2.61-5.81-2.61-9.47s1.14-6.66,3.43-8.99c2.29-2.33,5.03-4.05,8.24-5.15,3.2-1.1,6.43-2.15,9.68-3.16,3.25-1.01,5.99-2.43,8.24-4.26,2.24-1.83,3.36-4.21,3.36-7.14s-1.42-4.76-4.26-5.77c-2.75-.91-4.76-.41-6.04,1.51-.55.73-.82,1.65-.82,2.75,0,3.48-.69,6.18-2.06,8.1s-3.98,2.88-7.83,2.88-6.23-1.78-7.41-5.35c-1.46-4.03-.5-7.96,2.88-11.81,4.3-4.94,11.21-7.41,20.73-7.41,5.86,0,11.12,1.53,15.79,4.6,4.67,3.07,7.73,7.44,9.2,13.11.82,3.48,1.24,13.37,1.24,29.66,0,1.1.09,2.22.27,3.36.18,1.15.55,2.2,1.1,3.16.55.96,1.24,1.44,2.06,1.44ZM966.97,120.72c.28,3.94,2.17,5.88,5.7,5.84,3.52-.04,6.61-1.53,9.27-4.46v-15.52c-1.37,1.56-3.07,2.82-5.08,3.78-2.02.96-3.66,1.65-4.94,2.06-1.28.41-2.43,1.28-3.43,2.61-1.01,1.33-1.51,3.23-1.51,5.7Z"/>
  </g>
</svg>