<?xml version="1.0" encoding="UTF-8"?>
<svg id="Layer_1" xmlns="http://www.w3.org/2000/svg" version="1.1" viewBox="0 0 100 45">
  <!-- Generator: Adobe Illustrator 30.1.0, SVG Export Plug-In . SVG Version: 2.1.1 Build 136)  -->
  <defs>
    <style>
      .st0 {
        fill: #a1563d;
      }
    </style>
  </defs>
  <g>
    <g>
      <path class="st0" d="M22.57,24.81c-.28-.29-.68-.38-1.09-.42-1.29-.12-2.52,1.04-3.32,1.93l-.56.62-.91.97c-.55.59-1.13,1.13-1.8,1.61l.05,2.12.02,1.42c0,.2-.06.36-.17.51-.24.34-.58.36-.96.31-.43-.06-.86-.06-1.3-.03-.19,0-.36.01-.51-.12-.09-.08-.2-.27-.2-.44,0-.35.03-1.6.15-1.82.02-.04.19-.02.19.03.05.54.09,1.22.1,1.77,0,.11.09.17.17.16.48-.05.9-.06,1.38-.02.21.02.49.03.62-.16l-.09-3.37c-1.11.78-2.48,1.35-3.79,1.43-.43.03-.87.02-1.25-.23.68,0,1.3.04,1.94-.12,1.13-.29,2.15-.84,3.08-1.53.03-.15.03-.28,0-.48l-.65.44c-.63.42-.72.46-1.41.76-1.09.47-2.16.64-3.31.29-.19-.06-1.16-.5-1.14-.81.29-.04.36.2.71.18.71.38,1.88.34,2.65.08.76-.26,1.43-.62,2.06-1.11.39-.3.76-.57,1.11-.95v-2.74c0-.51.32-1.26.96-1.33-.02-1.01.77-.88.51-1.22-.04-.06-.11-.05-.22,0-.53-.61-.87-1.53-.87-2.35v-.99c0-.12.07-.28.11-.41.15-.61.37-1.16.75-1.67,1.15-1.55,2.08-1.97,3.71-2.88.48-.27.96-.54,1.46-.75.2.2.35.05.58.19.44.26.85.5,1.3.73.66.34,1.32.65,1.93,1.08.67.48,1.19.97,1.64,1.65.52.78.88,1.61.97,2.57.1,1.15-.15,1.86-.66,2.88.31.17.5.45.46.82.61.32.93.86.96,1.55l.1,1.97c3.94-2.7,6.72.13,6.26.21-.03,0-.13,0-.15-.03-.37-.38-.91-.66-1.45-.71-1.16-.12-1.98-.11-3.05.46l-.37.2c-.4.22-.77.48-1.15.74-.12.08-.17.21-.17.35l-.06,2.33c0,.21-.05.44-.04.64l.03.66c0,.11,0,.54,0,.64-.03.17-.08.55.17.61.37.1.82.06,1.2-.01.18-.03.26-.32.26-.48l.1-2.5c.02-.43.06-.84.13-1.26l.15-.81c.01-.07.25-.09.27,0,.07.42.08.8.1,1.22.01.23.07.45.11.67.05.29.05.6.07.9l.11,1.59c.05.68-.28,1.37-.94,1.63-.33.13-.72.1-1.08.12-.64.05-1.28-.14-1.54-.78-.16-.42-.15-.88-.15-1.35l.03-3.15c-.92.76-1.93,1.33-3.08,1.61-.77.19-1.56.05-2.28-.27-.72-.3-1.35-.76-1.75-1.43-.74-1.24-.49-2.91.74-3.73.61-.41,1.3-.49,2.02-.19ZM22.46,26.85c.24-.24.34-.51.25-.86-.06-.24-.26-.47-.56-.59-.81-.32-1.71.42-1.91,1.06-.06.2-.06.44-.08.65-.01.17.03.34.06.51.17.9.77,1.62,1.65,1.92.58.2,1.16.25,1.76.09.44-.11.87-.26,1.27-.48.74-.4,1.39-.89,2.05-1.42v-1.61c-.01-.52-.05-1-.14-1.52-.04-.25-.44-.09-.64-.26-.46-.39-.04-.82-.61-1.29-.12-.09-.19-.32-.12-.47l.43-.97c.45-1.01.45-1.52.27-2.57-.15-.86-.61-1.85-1.29-2.4-.5-.41-.99-.79-1.53-1.11l-1.19-.71c-.39-.23-.73-.51-1.06-.82-.35.33-.74.63-1.17.88l-.92.54c-1.35.79-2.37,1.53-3.01,3.01-.4.93-.45,1.91-.14,2.87.14.45.29.85.56,1.25.07.1.06.33,0,.42-.37.19-.57.54-.47.96.04.16-.12.33-.3.35-.33.03-.57.19-.62.54-.07.39-.08.8-.1,1.21l-.05,1.31.9-.99c.25-.28.47-.58.71-.86l.43-.51c.98-1.16,2.32-2.19,3.82-2.53.33-.07.71-.04,1.04-.04,1.78.03,3.43,1.48,3.22,3.24-.08.66-.36,1.26-.87,1.67-.54.43-1.23.66-1.9.47-.53-.15-.73-.62-.58-.75.1-.09.46.21.86-.2ZM18.9,24.77c1.09-.76,1.86-1.23,3.23-.89.96.24,1.69,1.13,1.57,2.14-.08.67-.36.6-.49,1.08.6-.37.95-1.08.93-1.77-.02-.69-.38-1.23-.89-1.62-.31-.24-.61-.37-1.01-.42-.73-.1-1.43,0-2.11.28-.75.3-1.39.73-1.96,1.31l-.68.7c-.52.54-.98,1.08-1.43,1.68-.12.16-.28.33-.42.47l-.47.48c-.08.08-.28.18-.31.29-.05.16-.02.31.02.49.22-.19.82-.75.96-.91l.89-.99.56-.63c.45-.51,1.06-1.3,1.61-1.68ZM27.03,32.53c0-.05,0-.03,0,.02.01.11.01.1,0-.02Z"/>
      <path class="st0" d="M12.83,12.68c-.38.88-.12,1.98-.12,2.79l-.02,4.57-.02,2.17-.04,1.74c-.01.63.03,1.91-.16,2.42.1.22,0,.44-.03.67l-.18,1.52c.03-.23-.2.44-.27.47-.04.02-.16-.07-.16-.13l-.09-1.75c-.05-1.1-.12-2.16-.09-3.28,0-.19.11-.46.02-.67.04-.09.08-.24.06-.3l-.08.21v-.81s.02-2.02.02-2.02c0-.25,0-.47.02-.7.01.09.02.19.03.27v.94s-.01.47-.01.47c-.03.53-.13,1.04.03,1.58.06-1.07.07-2.09.08-3.17,0-.23-.01-.59,0-.81l-.08-.24.07.06c.13.11-.06-.11-.04-.36.02-.24.06-.45.05-.67l-.03-1.63c-.02-1.11-.18-2.7.11-3.7.21-.73.86-1.19,1.61-1.22.29,0,.57.01.87.01h2.47s1.35-.02,1.35-.02l.88-.04,3.23-.02.95-.03c.33,0,.66-.08.99-.09l1.98-.05.89.06c.13,0,.3.05.41.05.57-.02,1.19-.04,1.75.14.29.09.52.27.72.47.31.32.37.65.41,1.09l.05.57c.04.48.01.93-.01,1.41l-.1,2c-.01.28,0,.55,0,.83v.62s.06,1.98.06,1.98l.04,1.66c.01.46,0,.88-.04,1.34l-.15,1.58c-.03.29-.05.55-.09.84-.21-.1-.21-.27-.23-.47-.11-.9-.21-1.01-.19-1.93,0-.19-.04-.36-.06-.55-.09-.62-.12-1.24-.16-1.87l-.08-1.09c-.01-.2-.03-.42-.03-.62v-.88c0-1.32.1-2.62.17-3.93l.04-.77c.01-.28-.03-.57-.07-.85-.04-.32-.27-.61-.6-.68-.36-.08-.73-.12-1.1-.11l-1.73.05-3.5.06c-.51,0-.99-.05-1.49-.03l-2.39.12-.88.05-1.98.04-1.98.02c-.45,0-.83.14-1.02.6ZM12.48,26.22s-.01-.03-.03-.03-.03.01-.03.03.01.03.03.03.03-.01.03-.03ZM12.42,26.79v-.25c-.03.07-.03.17,0,.25Z"/>
    </g>
    <path class="st0" d="M26.39,29.97c-.82.9-2.39,1.74-3.62,1.67l-1.03-.06c-.25-.02-.53-.17-.76-.26-.35-.13-.62-.32-.9-.55-.21-.07-.76-.49-.72-.74,0-.02-.07,0-.11,0-.7-.81-1.02-2.4-.58-3.4.01-.03.09-.08.12-.09.03-.01.08.1.08.14-.14.68.03,1.58.32,2.2.55,1.2,1.98,2.17,3.35,2.2,1.03.02,2.03-.22,2.9-.76l.79-.49s.16.09.16.14ZM23.05,31.57h-.24c.1.03.18.03.24,0Z"/>
    <path class="st0" d="M30.99,27.31c-.61.15-1.18.38-1.69.72l-.74.49s-.18,0-.21-.03c-.03-.04-.02-.16.02-.19,1.05-1.06,2.27-1.61,3.78-1.48.41.04,1.45.39,1.52.86-.97-.39-1.57-.64-2.68-.37Z"/>
  </g>
  <g>
    <g>
      <path class="st0" d="M37.13,16.47c.21,0,.32,0,.35,0,.04,0,.08.02.11.05.02.01.04.02.06.03.09,0,.18,0,.28,0,.06,0,.1.02.14.06.02.01.05.02.09.02s.07,0,.09.02c.06.04.12.06.18.06.02,0,.06.02.11.05.06.03.1.04.14.03.02,0,.05.01.06.04.06.07.13.12.22.15.05.02.09.04.14.06.06.04.1.08.15.13.1.1.18.18.24.25.02.02.03.05.04.07,0,.13,0,.26,0,.39,0,.03,0,.06-.03.07-.04.04-.09.1-.17.17l-.05.05s-.03.03-.04.04-.01.01-.03.02c-.02.01-.02.02-.03.02,0,0-.01,0-.02,0-.01,0-.02,0-.03,0s-.02,0-.04,0c-.02,0-.03,0-.05,0-.01,0-.03,0-.06,0h-.07s-.07-.01-.11-.04c-.04-.03-.08-.04-.1-.04-.05-.05-.1-.09-.15-.13-.06-.02-.12-.06-.17-.09-.13-.1-.28-.17-.44-.23-.06-.01-.12-.03-.17-.06-.02-.01-.04-.02-.06-.02-.02,0-.06,0-.09,0-.04,0-.06,0-.07,0-.06,0-.1,0-.15-.04-.02-.02-.04-.03-.06-.04-.18,0-.36,0-.54,0-.03,0-.06,0-.07.03-.04.03-.09.05-.15.05-.08,0-.13,0-.15.02-.02.02-.05.04-.1.06s-.08.04-.11.06c-.01.02-.04.05-.07.08-.04.04-.06.07-.08.09-.05.06-.09.13-.11.19-.02.05-.02.1-.02.16,0,0,0,.02,0,.04,0,.02,0,.04,0,.06s0,.03,0,.05c0,.02.02.03.03.04.01.02.03.05.05.1.02.05.04.08.06.1.02.01.04.04.08.07.03.04.05.06.06.06.09.06.19.11.3.15h.04s.03,0,.04,0c.07.06.14.08.22.07.07.06.16.08.25.08.06.06.13.08.22.06.09-.01.17,0,.25.06,0,0,.03.01.07.02h.08s.07,0,.11.03.08.04.1.04c.07,0,.13,0,.19.02.02.02.04.03.06.05.02,0,.05.01.08.02.04,0,.07.01.1.02s.05.02.07.04c.09,0,.17.03.25.08.1,0,.18.03.24.11.02.02.05.04.1.06.05.02.08.04.1.06.07.08.2.21.39.39.03.04.06.09.07.14.02.04.04.09.06.13.05.08.07.17.07.26,0,.04,0,.07.03.11.02.03.04.06.05.07v.35l-.05.06h0s-.02.03-.02.04c0,.03,0,.09-.02.19,0,.02-.01.05-.04.08-.02.04-.04.07-.04.09,0,.04,0,.1-.05.16s-.06.1-.06.11c-.04.02-.07.07-.11.13-.03.06-.06.1-.08.11-.02.04-.06.07-.09.11-.04.04-.08.08-.12.12-.05.04-.08.08-.11.11-.04.03-.09.05-.14.06-.07.05-.15.09-.23.13-.15.07-.24.1-.28.09-.08.06-.17.09-.26.09-.07.06-.16.08-.25.06-.01,0-.04,0-.07,0-.04,0-.07,0-.09,0-.02,0-.05.01-.06.02-.07.04-.14.06-.22.06h-.59s-.05,0-.07,0c-.02,0-.06-.02-.11-.05-.06-.02-.1-.03-.15-.03-.07,0-.15,0-.23,0l-.06-.03s-.05-.03-.07-.04c-.01,0-.04,0-.09,0-.05,0-.08,0-.11-.01-.01,0-.03-.01-.06-.03-.03-.02-.05-.03-.08-.03-.06,0-.12-.01-.17-.06-.02-.01-.05-.02-.09-.02-.04,0-.07-.01-.09-.02-.04-.04-.08-.07-.12-.1-.06-.04-.13-.08-.2-.1-.02,0-.05-.02-.09-.06-.04-.03-.08-.05-.11-.05-.11-.1-.17-.15-.17-.16-.12-.12-.19-.19-.22-.22-.01-.02-.03-.05-.05-.1-.02-.05-.04-.08-.06-.1v-.16c.03-.1.07-.19.13-.28.08-.09.17-.15.28-.2.02-.01.05-.02.07-.02h.19s.03,0,.05,0c.01,0,.02,0,.03.01,0,0,.01,0,.02.01s.02.02.02.02c0,0,.01,0,.02.01.03,0,.07.01.11.04s.08.04.1.05c.01,0,.02,0,.04.02.02.01.04.03.06.05.04.03.06.06.08.08.05.04.1.08.17.1.14.07.23.12.28.14.04.02.09.05.13.07.05,0,.1,0,.16,0,.04,0,.07.01.1.04.05.03.1.04.15.04.07,0,.13,0,.18.05.02.02.04.03.07.03h.33c.15,0,.26,0,.33,0,.05,0,.09-.03.14-.06.02-.01.05-.02.07-.02.03,0,.07,0,.11-.03s.08-.04.1-.05c.04-.01.07-.03.09-.06.02-.01.04-.04.07-.07s.06-.06.07-.07c.02-.02.05-.06.07-.11.02-.06.04-.1.07-.11,0-.1,0-.15,0-.16,0-.1,0-.16-.03-.18-.02-.02-.04-.05-.06-.1s-.04-.08-.06-.1c-.04-.04-.07-.07-.11-.11-.02-.02-.05-.05-.1-.08-.05-.03-.08-.04-.09-.05-.01-.01-.04-.02-.08-.04-.04-.01-.07-.03-.09-.05-.06-.04-.12-.05-.18-.05-.05-.05-.15-.07-.29-.07-.01,0-.02,0-.04,0-.02-.02-.04-.04-.06-.05s-.05-.01-.07-.01-.05,0-.08,0c-.03,0-.05,0-.08,0-.06,0-.1,0-.11-.02-.06-.06-.13-.07-.22-.06-.03,0-.07,0-.11-.03-.04-.03-.08-.04-.1-.04-.06.01-.12,0-.18-.03-.06-.04-.12-.06-.18-.06-.02,0-.06-.02-.1-.05-.04-.03-.08-.04-.11-.04-.02,0-.06,0-.09-.03-.04-.02-.06-.04-.08-.05-.02,0-.04-.01-.07-.03-.03-.02-.05-.03-.07-.03-.04-.02-.09-.04-.14-.07-.06-.02-.11-.05-.16-.09,0,0-.04-.04-.11-.11l-.11-.11c-.07-.07-.1-.1-.11-.11-.08-.08-.14-.2-.18-.37,0-.02-.02-.05-.03-.07-.04-.04-.05-.09-.05-.15v-.61c0-.08.01-.15.06-.22.01-.02.02-.05.03-.11,0-.05.02-.09.05-.11.01-.01.02-.04.04-.08.01-.04.03-.07.05-.09,0-.05.04-.1.1-.17.06-.06.09-.11.1-.16.08-.09.16-.17.25-.25.01-.01.04-.03.08-.05.04-.02.07-.04.09-.06.05-.04.1-.07.16-.09.02-.01.05-.03.09-.05.04-.02.07-.03.09-.05.06-.03.09-.05.1-.05.04,0,.09,0,.15-.04.06-.03.11-.05.15-.04.02,0,.06-.01.11-.04.05-.03.1-.04.13-.04.08.01.16.01.24,0,.02,0,.05-.02.06-.03.03-.02.07-.04.11-.05.03,0,.16,0,.39,0Z"/>
      <path class="st0" d="M43.39,16.63h0c.19,0,.29,0,.31,0,.09,0,.13.02.15.03.02.01.05.03.1.05.05.02.08.04.11.06.02.02.05.05.09.09.04.04.06.07.07.08.02.03.04.06.06.1.02.04.05.1.09.18.04.08.08.15.1.2.02.03.04.05.04.06,0,.08.02.15.07.21,0,.09.03.17.08.25,0,.03,0,.06,0,.09,0,.03.02.06.04.09.02.03.03.06.04.07,0,.02.02.04.04.07.02.03.03.06.04.09,0,.03.01.06,0,.09.03.03.06.09.07.17.02.09.04.14.07.17,0,.07,0,.13.04.18.04.06.07.11.09.17.01.02.02.05.03.07,0,.07.02.13.06.17.01.02.02.05.03.11,0,.05.02.09.05.11.01.01.03.04.04.08.02.04.03.07.04.08.01.02.02.05.02.08s0,.06,0,.06c.03.04.06.1.07.18.02.08.04.14.07.18,0,.02,0,.05,0,.08,0,.03.02.06.04.09.02.03.03.06.04.08,0,.02.02.04.04.07.02.03.03.06.04.09,0,.03.01.06,0,.09.06.07.08.16.08.25.02.02.03.05.04.08,0,.03.02.06.02.09,0,.03.02.06.03.08.02.07.06.14.1.21.02.03.03.06.03.1,0,.03.01.06.04.1.02.04.04.06.04.07,0,.01.01.03.01.06,0,.03,0,.05,0,.07,0,.02.01.04.03.05.02.03.03.07.03.11,0,.03.01.07.04.11.02.04.04.06.04.07,0,.01,0,.04,0,.07s0,.06.02.07c.02.03.05.1.06.22,0,.03-.01.07-.04.11s-.04.08-.05.1c-.01.06-.04.09-.09.12-.02.01-.05.02-.07.02-.04,0-.07.02-.11.03-.06.04-.11.06-.17.06-.04,0-.08,0-.12,0-.06,0-.1-.02-.15-.06-.02-.01-.04-.02-.06-.02-.07,0-.13-.02-.17-.07-.06-.07-.13-.13-.19-.19-.03-.02-.06-.07-.09-.13-.03-.06-.05-.1-.08-.13,0-.07,0-.13-.04-.18-.02-.02-.04-.05-.06-.09-.02-.04-.03-.07-.04-.08-.02-.04-.03-.07-.03-.11,0-.03,0-.06-.02-.07-.09-.12-.2-.21-.33-.26-.06-.02-.13-.02-.19-.02-.07,0-.13,0-.18-.05-.02-.02-.04-.03-.06-.03h-.51c-.08,0-.15-.02-.21-.06-.01,0-.05,0-.11-.02-.02,0-.03,0-.05,0-.01,0-.03,0-.04,0-.02,0-.03,0-.03-.01-.02-.02-.06-.03-.09-.05-.04-.01-.07-.02-.09-.02h-.46s-.08,0-.1.04c-.09.09-.17.17-.22.23-.01.02-.02.04-.02.06-.01.07-.02.1-.03.11-.02.02-.03.05-.05.09-.01.04-.02.07-.04.09-.04.06-.06.12-.06.18-.05.07-.08.16-.08.25-.02.02-.04.06-.07.12s-.06.11-.1.13c-.06.05-.11.1-.17.17-.05.07-.12.1-.2.09-.01,0-.02,0-.04,0-.06.06-.13.08-.21.06h-.06s-.05,0-.07,0c-.02,0-.04,0-.06-.01,0,0-.04-.03-.11-.06s-.12-.07-.14-.11c0,0,0-.02-.02-.03-.02-.01-.02-.02-.02-.04-.02-.02-.03-.04-.04-.06v-.39s0-.02,0-.04c.06-.06.08-.13.07-.22.06-.07.08-.16.08-.25.06-.07.09-.16.07-.25,0-.07,0-.15,0-.24,0-.08-.02-.15-.06-.22-.01-.01-.02-.03-.04-.06-.01-.03-.02-.05-.03-.06-.02-.05-.05-.09-.07-.14-.02-.03-.03-.07-.04-.11v-.27s0-.06.03-.07c.13-.14.21-.21.22-.22.06-.04.13-.08.2-.11.04-.02.09-.04.13-.07l.39-.39c.05-.09.09-.18.13-.28,0-.02,0-.04,0-.06,0-.02.02-.04.03-.06.01-.02.02-.04.03-.05,0-.01.01-.04.01-.07,0-.04,0-.06.01-.07,0-.02.02-.04.04-.07.02-.03.03-.05.04-.06.04-.07.07-.14.07-.21,0-.02.01-.05.04-.09.02-.03.04-.06.04-.09,0-.02,0-.05,0-.06s.02-.04.03-.06c.01-.02.02-.04.03-.05,0-.02.02-.06.04-.09.02-.04.03-.07.05-.1.01-.03.02-.06,0-.1.03-.03.06-.09.07-.17.02-.08.04-.14.07-.18,0-.06.02-.12.05-.18.01-.02.03-.05.05-.08.02-.04.03-.06.05-.08.02-.04.03-.07.03-.11.03-.09.07-.18.13-.28.1-.1.16-.16.19-.18.02-.02.04-.03.06-.04.07,0,.13-.02.18-.06.02-.01.04-.02.07-.02.04,0,.18,0,.42,0ZM44.04,20.1v-.47s-.04-.04-.05-.07-.02-.06-.02-.1c0-.04-.01-.07-.02-.08-.03-.03-.05-.08-.06-.16s-.03-.13-.06-.15c0-.04,0-.07-.02-.11-.01-.04-.02-.07-.03-.09,0-.02-.03-.06-.05-.1-.02-.05-.04-.07-.06-.09-.02-.06-.06-.12-.09-.17-.07-.09-.16-.13-.28-.11-.04,0-.07.01-.1.04-.01.01-.06.07-.16.17,0,.02-.02.06-.06.11s-.04.1-.04.13c0,.02,0,.05-.03.08s-.04.05-.04.06c0,.02-.02.05-.04.1-.02.05-.04.09-.05.12,0,.04-.01.07,0,.11,0,.02,0,.05-.02.06-.04.04-.06.09-.06.15v.23s0,.06.02.07c0,.01.02.04.05.1s.05.09.06.11c.02.02.04.05.07.08.03.03.06.05.1.06.01,0,.04.02.09.05s.09.04.12.04c.05.05.11.07.17.07,0,0,.04,0,.11,0,.07,0,.11,0,.11,0s.03,0,.08,0c.05,0,.07,0,.08,0,.04,0,.08-.02.1-.05.01,0,.03-.02.05-.04.02-.02.03-.04.04-.04.04-.03.06-.07.06-.13Z"/>
      <path class="st0" d="M47.18,19.62v-2.56c0-.1.02-.18.07-.26,0-.04.02-.07.03-.09s.04-.05.08-.09.06-.05.07-.06c0,0,.05-.02.13-.06.08-.04.14-.05.19-.05.09,0,.18,0,.28,0,.02,0,.05,0,.07.03.1.1.2.2.29.3.02.02.03.04.03.06v3.85c0,.08.01.15.06.22.02.03.02.07.02.11,0,.04,0,.09.04.16s.05.1.05.13c.01,0,.03.03.06.06.03.04.06.06.08.08.02.02.06.03.09.05.01,0,.04.02.07.04.03.02.06.03.09.04.03,0,.06,0,.09,0,.06,0,.1.01.14.06.04.02.07.03.11.03.08-.01.15,0,.22.06.02.01.05.02.11.03.05,0,.09.02.11.04.06.05.13.08.2.1.01,0,.04.01.07.02.03,0,.06.01.08.02.02,0,.04.02.06.03.02,0,.06.02.09.04.04.02.06.04.08.04.06.01.13.02.19,0,.05,0,.1.02.15.05.03.02.06.03.1.03.04,0,.08,0,.14,0h.14s.1,0,.27,0c.1.06.21.1.31.15.05.04.1.09.15.13.02.02.04.05.05.09.02.04.03.07.04.08.06.06.06.11,0,.17-.01.01-.02.03-.04.06s-.02.06-.04.07c-.03.04-.06.07-.1.11-.04.03-.09.06-.14.07-.1.04-.16.06-.17.06-.02,0-.05,0-.07.02-.06.04-.11.06-.17.06h-.66c-.1.01-.18,0-.26-.06-.04,0-.1,0-.17-.04-.07-.03-.12-.05-.16-.05h-.04s-.07-.06-.14-.07c-.07-.01-.11-.02-.13-.04-.07-.04-.14-.08-.21-.1-.06-.01-.12-.02-.18-.03-.02,0-.05-.02-.07-.03-.03-.02-.06-.04-.1-.04h-.74s-.07.01-.1.04c0,0,0,0,0,0-.01,0-.02,0-.03,0-.13.02-.26.02-.39,0-.02-.01-.03-.02-.03-.03-.06-.03-.09-.04-.11-.04-.14.01-.25-.04-.33-.16-.03-.04-.05-.09-.05-.15v-.04s-.07-.15-.07-.29v-2.52h0Z"/>
      <path class="st0" d="M53.78,16.62h2.29s.07,0,.11.02c.03.01.07.03.11.06.04.02.07.04.09.06.02.01.04.03.06.06.03.06.06.11.08.17.02.09.03.18.02.27,0,.03,0,.06-.03.07-.07.08-.15.15-.22.22-.06.04-.11.06-.17.08-.04.01-.07.02-.11.02-.36,0-.66,0-.89,0-.1-.02-.18,0-.26.06,0,0-.03,0-.07,0s-.08.01-.11.04c0,0-.02.02-.05.05s-.05.05-.06.06c-.01.01-.03.03-.04.06-.02.02-.02.05-.02.07-.05.06-.07.12-.06.18v.23s-.02.05-.03.07c-.04.06-.05.11-.05.17v3.42s0,.13,0,.24c0,.11,0,.2,0,.26,0,.06-.01.1-.06.14l-.17.17s-.08.06-.14.06c-.09-.01-.16,0-.22.06-.04.02-.07.02-.1,0-.04-.03-.06-.05-.06-.05-.12.01-.21-.03-.28-.13,0,0-.02-.02-.05-.05-.03-.02-.05-.05-.06-.06,0-.01-.02-.04-.05-.09s-.05-.09-.06-.12c0-.03-.01-.07-.01-.11v-4.24c0-.06-.02-.1-.06-.14-.12-.12-.19-.2-.22-.22-.02-.03-.06-.05-.11-.07s-.09-.04-.12-.06c0,0-.04,0-.11,0-.08,0-.36,0-.85,0h-.11s-.03,0-.06,0c-.03,0-.06,0-.07,0-.02,0-.04-.02-.06-.03-.02-.01-.06-.03-.11-.06-.06-.02-.09-.05-.11-.08-.02-.02-.04-.04-.06-.06-.03-.03-.05-.07-.05-.11,0-.07,0-.15,0-.23-.02-.12.05-.24.19-.35.02,0,.07-.02.13-.06.06-.03.11-.05.16-.05.27,0,1.03,0,2.29,0Z"/>
      <path class="st0" d="M66.07,17.27v5.09c0,.08-.02.15-.06.22,0,.02,0,.04,0,.07,0,.1-.05.17-.16.19-.02,0-.04.02-.08.04-.03.02-.06.03-.09.04-.03,0-.05.01-.08,0,0,0-.02,0-.04.02-.12.09-.24.09-.36,0-.02-.01-.06-.02-.12-.03-.06,0-.1-.03-.13-.06-.05-.06-.1-.12-.17-.17-.02-.03-.04-.07-.04-.11v-1.17c0-.06-.02-.1-.05-.15-.01-.02-.02-.04-.03-.06,0-.07,0-.13,0-.19,0-.04,0-.07,0-.1s-.02-.07-.05-.11c-.03-.05-.04-.08-.04-.08-.04-.1-.12-.17-.22-.2-.02,0-.04-.02-.07-.04-.03-.02-.06-.03-.09-.04s-.06-.01-.09-.01c-.02,0-.05-.01-.08-.04-.04-.02-.07-.03-.09-.03-.06,0-.1-.02-.14-.06-.02-.01-.07-.02-.16-.03-.05,0-.09-.01-.14-.04-.02,0-.06-.02-.1-.05-.04-.02-.08-.04-.11-.06-.04-.02-.07-.02-.11-.01,0,0-.03-.01-.06-.04-.07-.04-.14-.08-.21-.1-.09-.02-.17-.02-.27-.02h-.35c-.06,0-.1.02-.14.06-.04.05-.09.09-.14.14-.03.02-.06.06-.08.12-.02.06-.04.09-.06.11,0,.05-.01.1-.02.16v1.71c.01.1,0,.18-.06.26,0,0,0,.01,0,.02v.05s-.01.07-.02.07c-.08.09-.16.17-.25.25-.02.02-.04.02-.07.02-.05,0-.09.02-.14.05-.07.06-.15.06-.22,0-.04-.03-.09-.05-.15-.05-.02,0-.05,0-.06-.02-.07-.07-.15-.14-.23-.22-.01-.02-.02-.04-.03-.06,0-.06,0-.11,0-.16.01-.07,0-.13-.05-.18-.02-.02-.03-.07-.03-.15v-4.59c0-.09.01-.18.06-.26.02-.03.02-.11.02-.23,0-.04.02-.08.05-.13.03-.05.05-.09.05-.12.04-.06.09-.09.15-.12.12-.05.2-.07.25-.07h.22s.06,0,.07,0c.02,0,.04.01.06.02.01.01.05.04.11.07s.11.07.14.1c.06.06.08.13.07.21,0,.04,0,.08.02.11.04.06.06.12.06.18v.85c0,.07,0,.13,0,.16,0,.02,0,.05.03.07.1.1.2.2.3.29.02.02.04.03.06.03.06,0,.1.02.15.05.03.02.07.04.11.04h.23c.06,0,.1.02.15.05.02.02.07.03.15.03.09,0,.18.02.26.06.02.01.05.02.11.03s.09.02.11.04c.06.05.13.08.21.1.07.01.14.04.21.07.07.02.15.02.23,0h.19s.06-.02.07-.04c.06-.06.13-.12.19-.19.03-.02.05-.06.05-.1,0-.08,0-.17,0-.27,0-.03,0-.06.02-.07.04-.06.06-.12.06-.18v-1.13c0-.09,0-.15,0-.19,0-.02,0-.05.03-.07.09-.09.18-.18.28-.28.02-.03.06-.05.1-.05h.35c.09,0,.13.02.15.03.02.01.05.03.1.05s.08.04.1.06c0,0,.02.02.04.04.02.02.04.04.05.05,0,.01.02.03.03.05.01.02.02.04.02.06,0,.02,0,.04,0,.06,0,.01,0,.02.02.04.05.06.07.13.05.22Z"/>
      <path class="st0" d="M67.18,19.77v-.47s.01-.07.04-.11c.02-.03.04-.07.04-.11,0-.02,0-.06,0-.11,0-.05,0-.09,0-.12,0-.05.02-.09.06-.14.01-.02.02-.05.03-.07,0-.12.02-.23.08-.33.04-.06.06-.13.08-.21.02-.07.05-.14.09-.2.04-.04.08-.1.13-.19.05-.09.1-.15.14-.18l.1-.1.11-.11.1-.1c.06-.07.13-.13.2-.18.08-.04.15-.09.21-.15.02-.01.09-.05.21-.11.12-.06.21-.09.28-.09.02-.04.08-.06.16-.07.08-.01.13-.03.16-.06.01,0,.05-.01.11-.02.01,0,.08,0,.19,0,.04-.03.09-.05.13-.06.05-.01.11-.02.18,0,.07,0,.12,0,.14,0,.09,0,.24,0,.47,0,.02,0,.05.02.06.03.04.02.07.04.11.05h.28s.04.02.1.05c.04.02.06.03.07.03.08,0,.15.02.21.07.02,0,.05,0,.08,0s.06.02.1.04c.04.02.06.03.07.04.02.01.06.03.12.06.06.02.08.04.08.05.04.04.1.08.19.13.09.05.15.1.18.14l.06.06c.15.16.31.32.46.48.03.07.08.18.15.31.07.13.11.21.12.24.03.06.05.11.06.17,0,.02.01.05.04.09.02.03.04.06.04.09,0,.06,0,.11,0,.16,0,.01,0,.02.02.04.04.05.06.11.06.17v.19c0,.06.02.1.05.15.02.02.03.04.03.07v.89s-.01.08-.04.11c-.02.03-.04.06-.04.1,0,.11,0,.2,0,.28,0,.02,0,.05-.03.07-.01.02-.02.05-.03.1s-.01.07-.01.08c0,.02-.02.04-.04.08-.02.03-.03.06-.04.09,0,.03,0,.06,0,.09-.06.06-.08.13-.07.21,0,.02-.02.05-.04.06-.06.07-.11.14-.15.22-.02.05-.04.09-.06.14-.04.06-.08.1-.13.15l-.33.33-.17.17s-.09.03-.15.08-.09.07-.11.09c-.03.01-.08.04-.15.07-.07.03-.12.06-.16.08-.02.01-.05.02-.1.03-.05,0-.09.02-.11.05-.02.01-.04.02-.06.02-.02,0-.04,0-.07,0-.03,0-.05,0-.06,0-.04,0-.07.01-.1.04-.03.02-.07.04-.11.04-.02,0-.13,0-.31,0-.01.02-.03.03-.05.04-.02,0-.04.02-.06.02-.02,0-.04,0-.06,0-.01,0-.03,0-.06,0-.03,0-.05,0-.06,0h-.39s-.05-.02-.06-.04c-.03-.02-.07-.04-.11-.04h-.27s-.06-.02-.07-.03c-.04-.04-.09-.05-.15-.05-.08,0-.15-.02-.21-.06-.02-.01-.05-.02-.11-.02-.05,0-.09-.02-.11-.04-.04-.02-.11-.05-.2-.1-.09-.05-.16-.08-.22-.1-.2-.18-.32-.3-.36-.35-.06-.06-.13-.13-.22-.22-.03-.02-.08-.07-.14-.14-.01-.01-.02-.02-.02-.04,0-.04-.03-.08-.07-.12-.04-.05-.07-.08-.07-.1,0-.01-.02-.03-.03-.06-.02-.03-.03-.06-.03-.07,0-.01-.02-.04-.05-.09-.03-.05-.05-.09-.06-.12,0-.03-.01-.07,0-.11-.04-.02-.06-.07-.07-.15-.01-.08-.03-.13-.06-.16,0-.01,0-.02,0-.04v-.04c-.01-.06-.01-.12,0-.17,0-.05,0-.1,0-.17,0-.06-.03-.11-.07-.16,0,0,0-.03,0-.07v-.47h0ZM68.59,19.79v.59c0,.06,0,.1.05.15.02.03.03.06.03.1,0,.1.02.18.07.26.04.06.06.11.08.17,0,.02.02.06.05.1.03.04.04.08.05.1,0,.01.05.06.13.14.02.02.07.08.17.17.06.07.1.1.11.11.04.04.08.07.13.09.01,0,.04.01.09.04.05.03.09.04.12.03.02,0,.05,0,.07.03.04.03.09.05.14.05h.74c.07,0,.13-.01.17-.06,0,0,.04,0,.11-.03.02,0,.05,0,.07-.02.02-.01.04-.03.06-.06.02-.02.05-.04.08-.06s.05-.03.08-.03c.12-.12.19-.18.2-.18.08-.07.15-.14.21-.23.01-.03.03-.08.06-.14.03-.06.06-.11.07-.14.02-.06.04-.12.04-.18.02-.02.04-.04.05-.07s.02-.05.02-.06c0-.02,0-.04,0-.08v-.07c0-.07.01-.11.02-.12.06-.07.08-.16.06-.26v-.36c0-.22,0-.34,0-.37,0-.01,0-.04,0-.08,0-.04,0-.07,0-.09,0-.02,0-.04-.02-.08,0-.03-.03-.06-.05-.08,0-.01,0-.02,0-.04.02-.11,0-.21-.07-.29,0-.07,0-.13-.05-.18-.04-.06-.07-.11-.09-.17-.03-.07-.07-.14-.12-.19-.02-.02-.06-.05-.1-.09-.04-.04-.06-.07-.07-.07-.07-.08-.14-.15-.23-.21-.09-.05-.17-.09-.27-.14-.04-.03-.09-.05-.15-.05h-.04s-.03,0-.06,0h-.07s-.04,0-.06-.01c-.02,0-.05-.02-.06-.04,0,0-.02,0-.04,0-.02,0-.07,0-.14,0-.07,0-.13,0-.17,0-.05,0-.09.03-.14.06l-.11.02s-.07,0-.11,0c0,0-.08.04-.21.11-.13.07-.23.13-.28.2-.02.03-.05.06-.08.08l-.11.11s-.07.07-.07.08c-.04.04-.06.08-.07.13,0,.01-.02.03-.03.05-.02.02-.03.04-.03.05-.02.05-.04.09-.06.14,0,.02-.02.05-.04.08-.02.04-.04.07-.04.09-.01.06-.02.12-.02.18,0,.07-.01.11-.02.12-.04.04-.06.14-.06.29,0,.05,0,.19,0,.42Z"/>
      <path class="st0" d="M79.8,18.91v1.86s0,.08-.03.12c-.04.05-.06.11-.06.17,0,.01,0,.08,0,.19-.03.02-.05.07-.06.14,0,.07-.03.12-.05.14-.02.02-.03.04-.03.06,0,.04,0,.07,0,.1-.01.03-.03.06-.06.1-.02.04-.04.06-.05.08,0,.02-.03.05-.07.1-.04.05-.07.09-.07.12-.12.12-.18.19-.18.2,0,0-.05.05-.14.13-.04,0-.09.03-.15.08-.06.05-.09.08-.11.09-.1.04-.21.09-.3.15-.05,0-.11,0-.19.05-.08.04-.14.05-.18.05-.05.05-.15.07-.29.07-.09,0-.15,0-.19,0-.04,0-.07,0-.07,0-.04.03-.07.05-.11.06s-.09,0-.14,0c-.06,0-.09,0-.12,0-.02,0-.05,0-.08,0-.03,0-.07,0-.13,0-.06,0-.11,0-.16,0-.04,0-.08-.03-.12-.06-.17-.01-.26-.02-.28-.02-.07,0-.13-.01-.17-.06-.02-.01-.07-.02-.16-.02-.05,0-.09-.02-.14-.05-.01,0-.02-.01-.04-.02-.01,0-.04-.01-.08-.02-.04,0-.08-.02-.1-.03-.06-.03-.11-.06-.17-.09-.09-.03-.16-.08-.23-.14-.02-.02-.06-.05-.11-.07-.06-.02-.09-.05-.11-.07-.05-.06-.1-.12-.17-.17-.02-.03-.05-.06-.07-.09,0,0-.01-.02-.01-.04,0-.02,0-.03,0-.04-.02-.02-.04-.05-.07-.09-.03-.04-.06-.07-.07-.1-.02-.03-.03-.06-.05-.1,0,0,0-.01,0-.02,0,0,0-.01,0-.02,0-.01-.01-.04-.01-.08,0-.04-.01-.08-.03-.1-.04-.04-.05-.08-.05-.14,0-.03-.01-.07-.04-.11s-.04-.08-.04-.1c0-.07,0-.13,0-.2,0-.02-.02-.05-.03-.06-.03-.06-.05-.09-.05-.11v-3.7s0-.09.03-.16c.04-.06.06-.1.06-.13,0,0,.03-.03.06-.07.03-.04.06-.07.09-.09.02-.02.05-.03.08-.05.02,0,.04-.02.08-.04.03-.02.06-.03.09-.04.03,0,.05,0,.08,0,.08.01.16.02.24,0,.1,0,.2.04.28.11.09.06.16.13.22.22.02.02.03.04.03.06v3.39c0,.15.02.25.06.3,0,.01,0,.05,0,.11v.06s0,.05,0,.06c0,.02,0,.03,0,.06,0,.02.01.04.02.06.01.02.02.04.04.06,0,.05.02.1.03.15.01.02.03.04.06.07.03.03.05.06.06.07.03.07.07.14.13.19.07.07.12.11.15.13.02.02.04.03.06.04.01,0,.04.01.08.04.04.02.07.04.1.04.04,0,.07,0,.07,0,.08.06.17.08.26.07.01,0,.09,0,.23,0,.14,0,.22,0,.23,0,.06,0,.13,0,.19,0,.05-.02.09-.04.14-.06,0,0,.03,0,.06,0s.06,0,.08-.03c.01-.01.04-.02.07-.04.03-.01.06-.02.07-.03.09-.07.17-.16.25-.25,0-.01.02-.04.05-.09.02-.05.05-.08.07-.1s.04-.05.06-.09c.01-.04.02-.07.04-.09.04-.04.05-.08.05-.14v-.16s0-.05.03-.07c.04-.07.06-.14.05-.22,0-.79,0-1.58,0-2.38v-.97s-.01-.05-.01-.06c0-.01,0-.03.01-.06.01-.03.02-.05.02-.06,0,0,.01-.03.03-.06.02-.03.03-.04.03-.05.05-.11.13-.19.25-.23.02,0,.04-.02.06-.03.02-.01.05-.02.07-.03s.05-.01.07-.01c.06,0,.17,0,.35,0,.06,0,.1.02.14.06.09.1.18.19.28.28.02.13.03.26.02.39,0,.15,0,.7,0,1.63Z"/>
      <path class="st0" d="M83.55,16.47c.21,0,.32,0,.35,0,.04,0,.08.02.11.05.02.01.04.02.06.03.09,0,.18,0,.28,0,.06,0,.1.02.14.06.02.01.05.02.09.02s.07,0,.09.02c.06.04.12.06.18.06.02,0,.06.02.11.05.06.03.1.04.14.03.02,0,.05.01.06.04.06.07.13.12.22.15.05.02.09.04.14.06.06.04.1.08.15.13.1.1.18.18.24.25.02.02.03.05.04.07,0,.13,0,.26,0,.39,0,.03,0,.06-.03.07-.04.04-.09.1-.17.17l-.05.05-.04.04s-.01.01-.03.02c-.02.01-.02.02-.03.02,0,0-.01,0-.02,0-.01,0-.02,0-.03,0s-.02,0-.04,0c-.02,0-.03,0-.05,0-.01,0-.03,0-.06,0h-.07s-.07-.01-.11-.04-.08-.04-.1-.04c-.05-.05-.1-.09-.15-.13-.06-.02-.12-.06-.17-.09-.13-.1-.28-.17-.44-.23-.06-.01-.12-.03-.17-.06-.02-.01-.04-.02-.06-.02-.02,0-.06,0-.09,0-.04,0-.06,0-.07,0-.06,0-.1,0-.15-.04-.02-.02-.04-.03-.06-.04-.18,0-.36,0-.54,0-.03,0-.06,0-.07.03-.04.03-.09.05-.15.05-.08,0-.13,0-.15.02-.02.02-.05.04-.1.06s-.08.04-.11.06c-.01.02-.04.05-.07.08-.04.04-.06.07-.08.09-.05.06-.09.13-.11.19-.02.05-.02.1-.02.16,0,0,0,.02,0,.04,0,.02,0,.04,0,.06s0,.03,0,.05c0,.02.02.03.03.04.01.02.03.05.05.1.02.05.04.08.06.1.02.01.04.04.08.07.03.04.05.06.06.06.09.06.19.11.3.15h.04s.03,0,.04,0c.07.06.14.08.22.07.07.06.16.08.25.08.06.06.13.08.22.06.09-.01.17,0,.25.06,0,0,.03.01.07.02h.08s.07,0,.11.03.08.04.1.04c.07,0,.13,0,.19.02.02.02.04.03.06.05.02,0,.05.01.08.02.04,0,.07.01.1.02s.05.02.07.04c.09,0,.17.03.25.08.1,0,.18.03.24.11.02.02.05.04.1.06.05.02.08.04.1.06.07.08.2.21.39.39.03.04.06.09.07.14.02.04.04.09.06.13.05.08.07.17.07.26,0,.04,0,.07.03.11.02.03.04.06.05.07v.35l-.05.06h0s-.02.03-.02.04c0,.03,0,.09-.02.19,0,.02-.01.05-.04.08-.02.04-.04.07-.04.09,0,.04,0,.1-.05.16-.04.06-.06.1-.06.11-.04.02-.07.07-.11.13-.03.06-.06.1-.08.11-.02.04-.06.07-.09.11-.04.04-.08.08-.12.12-.05.04-.08.08-.11.11-.04.03-.09.05-.14.06-.07.05-.15.09-.23.13-.15.07-.24.1-.28.09-.08.06-.17.09-.26.09-.07.06-.16.08-.25.06-.01,0-.04,0-.07,0-.04,0-.07,0-.09,0-.02,0-.05.01-.06.02-.07.04-.14.06-.22.06h-.59s-.05,0-.07,0c-.02,0-.06-.02-.11-.05-.06-.02-.1-.03-.15-.03-.07,0-.15,0-.23,0l-.06-.03s-.05-.03-.07-.04c-.01,0-.04,0-.09,0-.05,0-.08,0-.11-.01-.01,0-.03-.01-.06-.03-.03-.02-.05-.03-.08-.03-.06,0-.12-.01-.17-.06-.02-.01-.05-.02-.09-.02-.04,0-.07-.01-.09-.02-.04-.04-.08-.07-.12-.1-.06-.04-.13-.08-.2-.1-.02,0-.05-.02-.09-.06-.04-.03-.08-.05-.11-.05-.11-.1-.17-.15-.17-.16-.12-.12-.19-.19-.22-.22-.01-.02-.03-.05-.05-.1-.02-.05-.04-.08-.06-.1v-.16c.03-.1.07-.19.13-.28.08-.09.17-.15.28-.2.02-.01.05-.02.07-.02h.19s.03,0,.05,0c.01,0,.02,0,.03.01,0,0,.01,0,.02.01,0,0,.02.02.02.02,0,0,.01,0,.02.01.03,0,.07.01.11.04s.08.04.1.05c.01,0,.02,0,.04.02.02.01.04.03.06.05.04.03.06.06.08.08.05.04.1.08.17.1.14.07.23.12.28.14.04.02.09.05.13.07.05,0,.1,0,.16,0,.04,0,.07.01.1.04.05.03.1.04.15.04.07,0,.13,0,.18.05.02.02.04.03.07.03h.33c.15,0,.26,0,.33,0,.05,0,.09-.03.14-.06.02-.01.05-.02.07-.02.03,0,.07,0,.11-.03.05-.03.08-.04.1-.05.04-.01.07-.03.09-.06.02-.01.04-.04.07-.07s.06-.06.07-.07c.02-.02.05-.06.07-.11.02-.06.04-.1.07-.11,0-.1,0-.15,0-.16,0-.1,0-.16-.03-.18-.02-.02-.04-.05-.06-.1s-.04-.08-.06-.1l-.11-.11s-.05-.05-.1-.08c-.05-.03-.08-.04-.09-.05-.01-.01-.04-.02-.08-.04-.04-.01-.07-.03-.09-.05-.06-.04-.12-.05-.18-.05-.05-.05-.15-.07-.29-.07-.01,0-.02,0-.04,0-.02-.02-.04-.04-.06-.05s-.05-.01-.07-.01-.05,0-.08,0c-.03,0-.05,0-.08,0-.06,0-.1,0-.11-.02-.06-.06-.13-.07-.22-.06-.03,0-.07,0-.11-.03-.04-.03-.08-.04-.1-.04-.06.01-.12,0-.18-.03-.06-.04-.12-.06-.18-.06-.02,0-.06-.02-.1-.05-.04-.03-.08-.04-.11-.04-.02,0-.06,0-.09-.03-.04-.02-.06-.04-.08-.05-.02,0-.04-.01-.07-.03-.03-.02-.05-.03-.07-.03-.04-.02-.09-.04-.14-.07-.06-.02-.11-.05-.16-.09,0,0-.04-.04-.11-.11l-.11-.11c-.07-.07-.1-.1-.11-.11-.08-.08-.14-.2-.18-.37,0-.02-.02-.05-.03-.07-.04-.04-.05-.09-.05-.15v-.61c0-.08.01-.15.06-.22.01-.02.02-.05.03-.11,0-.05.02-.09.05-.11.01-.01.02-.04.04-.08.01-.04.03-.07.05-.09,0-.05.04-.1.1-.17.06-.06.09-.11.1-.16.08-.09.16-.17.25-.25.01-.01.04-.03.08-.05.04-.02.07-.04.09-.06.05-.04.1-.07.16-.09.02-.01.05-.03.09-.05.04-.02.07-.03.09-.05.06-.03.09-.05.1-.05.04,0,.09,0,.15-.04.06-.03.11-.05.15-.04.02,0,.06-.01.11-.04.05-.03.1-.04.13-.04.08.01.16.01.24,0,.02,0,.05-.02.06-.03.03-.02.07-.04.11-.05.03,0,.16,0,.39,0Z"/>
      <path class="st0" d="M87.25,19.77v-2.57s0-.1.03-.17c.03-.07.05-.11.06-.13,0,0,.02-.03.05-.06s.05-.06.06-.07c.01-.02.03-.03.06-.05.03-.02.06-.03.09-.03.06-.06.13-.08.21-.07h3.7s.1,0,.17.03c.07.03.11.05.13.05,0,0,.03.02.06.05s.06.05.07.06c.02.02.03.04.05.06.02.03.03.06.03.09,0,.01.02.03.03.05s.03.03.03.05c.01.04.01.08,0,.12-.04.08-.08.16-.12.23-.08.09-.17.15-.28.2-.02.01-.05.02-.07.02h-.19c-.66,0-1.32,0-1.98,0h-.19s-.06,0-.1.03c-.04.02-.06.04-.07.05h-.05s-.04,0-.06,0c-.02,0-.03.01-.04.02-.1.09-.18.19-.23.3-.01.02-.02.05-.02.07,0,.09,0,.17,0,.24,0,.01,0,.04,0,.08,0,.04,0,.08,0,.11,0,.03.01.05.03.07.07.09.16.17.25.25,0,0,.02.01.07.02.01,0,.02,0,.04,0,.02,0,.06.01.1.04s.08.04.11.03c.08,0,.16,0,.24,0,.04,0,.07.01.1.04.02.01.05.02.07.04h.04c.06,0,.12,0,.17,0,.05,0,.1,0,.17,0,.06,0,.11.03.16.07.02,0,.06,0,.12,0,.06,0,.09,0,.11,0,.07-.01.13,0,.18.04.02.01.05.03.1.05s.08.04.11.06c.02.04.07.08.12.14.06.06.1.09.11.11.02.02.03.04.03.07,0,.11,0,.21,0,.31,0,.02,0,.05-.03.06-.04.05-.09.09-.15.14-.04.02-.09.05-.13.06-.04.02-.07.04-.11.04h-.66s-.05,0-.07-.03c-.04-.03-.09-.05-.14-.05h-.62s-.07,0-.11,0c-.04.01-.07.03-.11.05-.04.02-.07.04-.1.04-.02.01-.04.03-.06.06-.01.02-.03.05-.06.09-.02.04-.04.08-.06.11s-.02.07-.02.11c0,.02,0,.06,0,.1,0,.04,0,.08,0,.1,0,.05-.02.09-.06.14-.02.03-.02.06,0,.07.03.04.05.07.06.11s.01.09,0,.16c0,.07,0,.11,0,.13,0,.06.03.1.06.14,0,0,.02.02.04.04.02.02.03.04.05.04.02.01.04.04.07.07s.05.06.08.09c.02.02.05.04.08.05.09.01.18.02.28,0,.06,0,.1,0,.11.02.06.04.12.06.18.06h2.06c.13,0,.25.05.36.13.05.02.07.07.07.13,0,.06,0,.1.05.14.06.09.06.17.02.27-.05.14-.13.25-.25.33-.02.01-.05.02-.07.02,0,0-.02,0-.04,0-.02,0-.04,0-.04,0-.06.05-.13.07-.21.07h-3.65c-.07,0-.13-.02-.18-.06-.01,0-.04-.02-.08-.04-.04-.02-.07-.04-.09-.06-.06,0-.11-.03-.15-.08-.04-.05-.06-.1-.05-.16,0-.02-.02-.05-.03-.07-.03-.06-.05-.09-.05-.1v-2.68h0Z"/>
    </g>
    <g>
      <path class="st0" d="M46.42,24.9l1.63,2.18,1.63-2.18h.39v3.39h-.64v-1.98l-1.19,1.58h-.38l-1.18-1.58v1.98h-.64v-3.39h.39Z"/>
      <path class="st0" d="M54.77,26.59c-.04,1.15-.9,1.75-2.01,1.76-1.11,0-1.97-.61-2.01-1.76.04-1.15.9-1.75,2.01-1.76,1.11,0,1.97.61,2.01,1.76ZM51.42,26.59c0,.66.57,1.11,1.34,1.12.77,0,1.34-.46,1.34-1.12s-.57-1.11-1.34-1.12c-.77,0-1.34.46-1.34,1.12Z"/>
      <path class="st0" d="M57.64,24.9c.8,0,1.34.34,1.34,1.06,0,.71-.38,1.09-1.23,1.09l1.36,1.24h-.95l-1.36-1.24h-.71v1.24h-.64v-3.39h2.19ZM56.08,26.41h1.67c.35,0,.57-.07.57-.46,0-.31-.32-.42-.68-.42h-1.56v.87h0Z"/>
      <path class="st0" d="M63.55,26.59c-.04,1.15-.9,1.75-2.01,1.76-1.11,0-1.97-.61-2.01-1.76.04-1.15.9-1.75,2.01-1.76,1.11,0,1.97.61,2.01,1.76ZM60.2,26.59c0,.66.57,1.11,1.34,1.12.77,0,1.34-.46,1.34-1.12s-.57-1.11-1.34-1.12c-.77,0-1.34.46-1.34,1.12Z"/>
      <path class="st0" d="M66.24,24.83c.66,0,1.43.22,1.8.63l-.56.4c-.24-.24-.81-.38-1.24-.39-.77,0-1.34.46-1.34,1.12s.57,1.11,1.34,1.12c.43,0,1-.15,1.24-.38l.56.4c-.36.41-1.14.62-1.8.63-1.11,0-1.97-.61-2.01-1.76.04-1.15.9-1.75,2.01-1.76Z"/>
      <path class="st0" d="M70.73,24.83c.66,0,1.43.22,1.8.63l-.56.4c-.24-.24-.81-.38-1.24-.39-.77,0-1.34.46-1.34,1.12s.57,1.11,1.34,1.12c.43,0,1-.15,1.24-.38l.56.4c-.36.41-1.14.62-1.8.63-1.11,0-1.97-.61-2.01-1.76.04-1.15.9-1.75,2.01-1.76Z"/>
      <path class="st0" d="M77.08,26.59c-.04,1.15-.9,1.75-2.01,1.76-1.11,0-1.97-.61-2.01-1.76.04-1.15.9-1.75,2.01-1.76,1.11,0,1.97.61,2.01,1.76ZM73.73,26.59c0,.66.57,1.11,1.34,1.12.77,0,1.34-.46,1.34-1.12s-.57-1.11-1.34-1.12c-.77,0-1.34.46-1.34,1.12Z"/>
    </g>
  </g>
</svg>